<?xml version="1.0" encoding="UTF-8" standalone="no"?>
<!-- Created with Inkscape (http://www.inkscape.org/) -->

<svg
   xmlns:dc="http://purl.org/dc/elements/1.1/"
   xmlns:cc="http://creativecommons.org/ns#"
   xmlns:rdf="http://www.w3.org/1999/02/22-rdf-syntax-ns#"
   xmlns:svg="http://www.w3.org/2000/svg"
   xmlns="http://www.w3.org/2000/svg"
   xmlns:sodipodi="http://sodipodi.sourceforge.net/DTD/sodipodi-0.dtd"
   xmlns:inkscape="http://www.inkscape.org/namespaces/inkscape"
   width="363.85715"
   height="472.42856"
   id="svg3029"
   version="1.1"
   inkscape:version="0.48.4 r9939"
   sodipodi:docname="New document 3">
  <defs
     id="defs3031" />
  <sodipodi:namedview
     id="base"
     pagecolor="#ffffff"
     bordercolor="#666666"
     borderopacity="1.0"
     inkscape:pageopacity="0.0"
     inkscape:pageshadow="2"
     inkscape:zoom="0.35"
     inkscape:cx="204.07143"
     inkscape:cy="126.21428"
     inkscape:document-units="px"
     inkscape:current-layer="layer1"
     showgrid="false"
     fit-margin-top="0"
     fit-margin-left="0"
     fit-margin-right="0"
     fit-margin-bottom="0"
     inkscape:window-width="1280"
     inkscape:window-height="751"
     inkscape:window-x="0"
     inkscape:window-y="25"
     inkscape:window-maximized="1" />
  <metadata
     id="metadata3034">
    <rdf:RDF>
      <cc:Work
         rdf:about="">
        <dc:format>image/svg+xml</dc:format>
        <dc:type
           rdf:resource="http://purl.org/dc/dcmitype/StillImage" />
        <dc:title></dc:title>
      </cc:Work>
    </rdf:RDF>
  </metadata>
  <g
     inkscape:label="Layer 1"
     inkscape:groupmode="layer"
     id="layer1"
     transform="translate(-170.92857,-186.1479)">
    <path
       sodipodi:type="arc"
       style="fill:#ffffff;fill-opacity:1;stroke:#000000;stroke-width:1;stroke-miterlimit:10;stroke-opacity:1;stroke-dasharray:none"
       id="path3037"
       sodipodi:cx="352.85715"
       sodipodi:cy="422.36218"
       sodipodi:rx="181.42857"
       sodipodi:ry="235.71428"
       d="m 534.28572,422.36218 c 0,130.1814 -81.22834,235.71428 -181.42857,235.71428 -100.20024,0 -181.42858,-105.53288 -181.42858,-235.71428 0,-130.1814 81.22834,-235.71428 181.42858,-235.71428 100.20023,0 181.42857,105.53288 181.42857,235.71428 z" />
    <path
       style="fill:#ff0000;fill-opacity:1;stroke:#000000;stroke-width:2.85714293;stroke-miterlimit:10;stroke-opacity:1;stroke-dasharray:none"
       d="M 153.78571,466.43845 C 124.90108,459.98314 101.18794,446.74642 76.905932,423.52399 -14.542768,336.06576 -22.61829,169.69944 59.571415,66.410245 96.187458,20.39424 152.57822,-3.9285388 203.07143,4.5150157 c 33.4294,5.5901183 59.35076,19.9797213 87.95291,48.8249003 28.10074,28.339495 46.25637,59.841764 58.15774,100.910884 37.50983,129.43856 -19.80423,273.12051 -122.64828,307.46991 -23.97819,8.00857 -50.3659,9.71983 -72.74809,4.71774 l 0,0 z"
       id="path3041"
       inkscape:connector-curvature="0"
       transform="translate(170.92857,186.1479)" />
  </g>
</svg>
