<?xml version="1.0" encoding="UTF-8" standalone="no"?>
<!-- Created with Inkscape (http://www.inkscape.org/) -->

<svg
   xmlns:dc="http://purl.org/dc/elements/1.1/"
   xmlns:cc="http://creativecommons.org/ns#"
   xmlns:rdf="http://www.w3.org/1999/02/22-rdf-syntax-ns#"
   xmlns:svg="http://www.w3.org/2000/svg"
   xmlns="http://www.w3.org/2000/svg"
   xmlns:sodipodi="http://sodipodi.sourceforge.net/DTD/sodipodi-0.dtd"
   xmlns:inkscape="http://www.inkscape.org/namespaces/inkscape"
   width="200.47517"
   height="129.03"
   id="svg5794"
   version="1.1"
   inkscape:version="0.48.4 r9939"
   sodipodi:docname="Condenser.svg">
  <defs
     id="defs5796" />
  <sodipodi:namedview
     id="base"
     pagecolor="#ffffff"
     bordercolor="#666666"
     borderopacity="1.0"
     inkscape:pageopacity="0.0"
     inkscape:pageshadow="2"
     inkscape:zoom="1"
     inkscape:cx="282.79714"
     inkscape:cy="-115.38906"
     inkscape:document-units="px"
     inkscape:current-layer="layer1"
     showgrid="false"
     fit-margin-top="0"
     fit-margin-left="0"
     fit-margin-right="0"
     fit-margin-bottom="0"
     inkscape:window-width="1280"
     inkscape:window-height="751"
     inkscape:window-x="0"
     inkscape:window-y="25"
     inkscape:window-maximized="1" />
  <metadata
     id="metadata5799">
    <rdf:RDF>
      <cc:Work
         rdf:about="">
        <dc:format>image/svg+xml</dc:format>
        <dc:type
           rdf:resource="http://purl.org/dc/dcmitype/StillImage" />
        <dc:title />
      </cc:Work>
    </rdf:RDF>
  </metadata>
  <g
     inkscape:label="Layer 1"
     inkscape:groupmode="layer"
     id="layer1"
     transform="translate(-92.202861,-287.94311)">
    <g
       id="g5802"
       transform="matrix(1.1800987,0,0,1.1800987,-229.88733,-233.79812)">
      <rect
         id="rect4625"
         pointer-events="none"
         height="30"
         width="70"
         y="495.93362"
         x="325.43497"
         style="fill:#ffffff;stroke:#000000" />
      <path
         id="path4627"
         pointer-events="none"
         stroke-miterlimit="10"
         d="m 325.43496,510.93363 10.5,0 3.5,2.5 7,-5 7,5 7,-5 7,5 7,-5 7,5 3.5,-2.5 10.5,0"
         inkscape:connector-curvature="0"
         style="fill:none;stroke:#000000;stroke-miterlimit:10" />
      <path
         id="path4629"
         pointer-events="none"
         stroke-miterlimit="10"
         d="m 342.93496,495.93363 0,-15 -2.8,2.5 5.6,0 -2.8,-2.5 m 17.5,15 0,-15 -2.8,2.5 5.6,0 -2.8,-2.5 m 17.5,15 0,-15 -2.8,2.5 5.6,0 -2.8,-2.5"
         inkscape:connector-curvature="0"
         style="fill:none;stroke:#000000;stroke-miterlimit:10" />
      <path
         id="path4639"
         pointer-events="none"
         stroke-miterlimit="10"
         d="m 273.43496,510.93363 45.63,0"
         inkscape:connector-curvature="0"
         style="fill:none;stroke:#000000;stroke-miterlimit:10" />
      <path
         id="path4641"
         pointer-events="none"
         stroke-miterlimit="10"
         d="m 324.31496,510.93363 -7,3.5 1.75,-3.5 -1.75,-3.5 z"
         inkscape:connector-curvature="0"
         style="fill:#000000;stroke:#000000;stroke-miterlimit:10" />
      <path
         id="path4643"
         pointer-events="none"
         stroke-miterlimit="10"
         d="m 395.43496,510.93363 41.63,0"
         inkscape:connector-curvature="0"
         style="fill:none;stroke:#000000;stroke-miterlimit:10" />
      <path
         id="path4645"
         pointer-events="none"
         stroke-miterlimit="10"
         d="m 442.31496,510.93363 -7,3.5 1.75,-3.5 -1.75,-3.5 z"
         inkscape:connector-curvature="0"
         style="fill:#000000;stroke:#000000;stroke-miterlimit:10" />
      <text
         sodipodi:linespacing="125%"
         id="text3498-8"
         y="500.75092"
         x="294.96463"
         style="font-size:14px;font-style:normal;font-variant:normal;font-weight:bold;font-stretch:normal;text-align:start;line-height:125%;letter-spacing:0px;word-spacing:0px;writing-mode:lr-tb;text-anchor:start;fill:#000000;fill-opacity:1;stroke:none;font-family:Sans;-inkscape-font-specification:Sans Bold"
         xml:space="preserve"><tspan
           y="500.75092"
           x="294.96463"
           id="tspan3500-2"
           sodipodi:role="line">1</tspan></text>
      <text
         sodipodi:linespacing="125%"
         id="text3498-2-3-7-7"
         y="501.70035"
         x="411.75552"
         style="font-size:14px;font-style:normal;font-variant:normal;font-weight:bold;font-stretch:normal;text-align:start;line-height:125%;letter-spacing:0px;word-spacing:0px;writing-mode:lr-tb;text-anchor:start;fill:#000000;fill-opacity:1;stroke:none;font-family:Sans;-inkscape-font-specification:Sans Bold"
         xml:space="preserve"><tspan
           y="501.70035"
           x="411.75552"
           id="tspan3500-8-4-3-4"
           sodipodi:role="line">2</tspan></text>
      <g
         transform="matrix(0.46823492,0,0,0.46823492,209.94655,300.13516)"
         id="g5457">
        <g
           style="font-style:normal;font-variant:normal;font-weight:normal;font-stretch:normal;letter-spacing:normal;word-spacing:normal;text-anchor:start;fill:none;stroke:#000000;stroke-linecap:butt;stroke-linejoin:miter;stroke-miterlimit:10.43299961;stroke-opacity:1;stroke-dasharray:none;stroke-dashoffset:0"
           id="g5459"
           transform="matrix(1.0629921,0,0,-1.0629921,-186.02362,789.27165)"
           xml:space="preserve"
           stroke-miterlimit="10.433"
           font-style="normal"
           font-variant="normal"
           font-weight="normal"
           font-stretch="normal"
           font-size-adjust="none"
           letter-spacing="normal"
           word-spacing="normal"><path
             style="fill:#000000;stroke-width:0"
             inkscape:connector-curvature="0"
             d="m 482,449.49 0,0.12 -0.01,0.13 -0.02,0.12 -0.02,0.13 -0.03,0.12 -0.03,0.12 -0.04,0.12 -0.05,0.12 -0.05,0.11 -0.06,0.12 -0.06,0.11 -0.07,0.1 -0.07,0.11 -0.08,0.1 -0.08,0.1 -0.08,0.09 -0.09,0.09 -0.1,0.09 -0.1,0.08 -0.1,0.08 -0.11,0.07 -0.11,0.07 -0.11,0.06 -0.12,0.06 -0.12,0.05 -0.13,0.04 -0.12,0.04 -0.13,0.03 -0.14,0.03 -0.13,0.01 -0.14,0.02 -0.14,0 c -1.68,0 -2.68,-1.39 -2.68,-2.64 0,-1.35 1.14,-2.64 2.64,-2.64 1.68,0 2.68,1.39 2.68,2.64 z"
             id="path5461" /><path
             style="fill:#000000;stroke-width:0"
             inkscape:connector-curvature="0"
             d="m 477.35,406.5 0.72,0.29 0.72,0.33 0.71,0.35 0.71,0.4 0.7,0.42 0.69,0.45 0.68,0.48 0.68,0.51 0.65,0.54 0.65,0.56 0.63,0.59 0.61,0.61 0.6,0.64 0.57,0.66 0.56,0.68 0.54,0.7 0.51,0.72 0.49,0.73 0.46,0.76 0.44,0.77 0.41,0.79 0.38,0.8 0.35,0.82 0.32,0.83 0.29,0.84 0.25,0.85 0.21,0.87 0.18,0.87 0.15,0.88 0.1,0.89 0.06,0.89 0.02,0.9 c 0,8.03 -5.28,13.4 -12.71,13.4 l -0.3,-1.25 c 4.98,0 8.62,-3.87 8.62,-10.56 0,-4.98 -2.54,-16.64 -10.9,-21.31 -0.25,1.73 -0.75,5.37 -4.39,5.37 v -1.09 c 2.09,0 3.04,-1.2 3.04,-4.23 0,-0.75 -0.06,-0.8 -0.56,-1 -1.28,-0.55 -2.78,-0.89 -4.17,-0.89 h 0 c -0.7,0 -2.3,0 -2.3,2.14 0,1.98 1.89,3.98 3.99,3.98 v 1.09 c -2.64,0 -5.08,-2.5 -5.08,-5.07 0,-1 0.3,-1.55 0.3,-1.6 h 0 c -3.89,1.53 -5.58,5.42 -5.58,9.91 0,3.44 1.29,10.51 5.08,15.89 3.64,5.09 8.32,7.37 11.95,7.37 l 0.3,1.25 c -10.75,0 -21.72,-11.31 -21.72,-22.92 0,-8.26 5.58,-13.29 12.76,-13.29 1.24,0 2.94,0.2 4.88,0.75 -0.21,-3.1 -0.21,-3.19 -0.21,-3.85 0,-1.59 0,-5.48 4.15,-5.48 5.92,0 8.31,9.12 8.31,9.67 0,0.34 -0.35,0.5 -0.55,0.5 -0.39,0 -0.5,-0.25 -0.59,-0.55 -1.19,-3.54 -4.08,-4.78 -5.83,-4.78 -2.3,0 -3.05,1.34 -3.53,5.13 z"
             id="path5463" /></g>      </g>
      <text
         xml:space="preserve"
         style="font-size:14px;font-style:normal;font-variant:normal;font-weight:normal;font-stretch:normal;text-align:start;line-height:125%;letter-spacing:0px;word-spacing:0px;writing-mode:lr-tb;text-anchor:start;fill:#000000;fill-opacity:1;stroke:none;font-family:Sans;-inkscape-font-specification:Sans"
         x="322.10428"
         y="547.86713"
         id="text3877"
         sodipodi:linespacing="125%"><tspan
           sodipodi:role="line"
           id="tspan3879"
           x="322.10428"
           y="547.86713">Condenser</tspan></text>
    </g>
  </g>
</svg>
