<?xml version="1.0" encoding="UTF-8" standalone="no"?>
<!-- Created with Inkscape (http://www.inkscape.org/) -->

<svg
   xmlns:dc="http://purl.org/dc/elements/1.1/"
   xmlns:cc="http://creativecommons.org/ns#"
   xmlns:rdf="http://www.w3.org/1999/02/22-rdf-syntax-ns#"
   xmlns:svg="http://www.w3.org/2000/svg"
   xmlns="http://www.w3.org/2000/svg"
   xmlns:sodipodi="http://sodipodi.sourceforge.net/DTD/sodipodi-0.dtd"
   xmlns:inkscape="http://www.inkscape.org/namespaces/inkscape"
   width="441.47388"
   height="252.50003"
   id="svg2"
   version="1.1"
   inkscape:version="0.48.4 r9939"
   sodipodi:docname="LindeHampson.svg">
  <sodipodi:namedview
     id="base"
     pagecolor="#ffffff"
     bordercolor="#666666"
     borderopacity="1.0"
     inkscape:pageopacity="0.0"
     inkscape:pageshadow="2"
     inkscape:zoom="1"
     inkscape:cx="306.30944"
     inkscape:cy="94.868386"
     inkscape:document-units="px"
     inkscape:current-layer="layer1"
     showgrid="false"
     inkscape:window-width="1280"
     inkscape:window-height="751"
     inkscape:window-x="0"
     inkscape:window-y="25"
     inkscape:window-maximized="1"
     fit-margin-top="0"
     fit-margin-left="0"
     fit-margin-right="0"
     fit-margin-bottom="0" />
  <defs
     id="defs4" />
  <metadata
     id="metadata7">
    <rdf:RDF>
      <cc:Work
         rdf:about="">
        <dc:format>image/svg+xml</dc:format>
        <dc:type
           rdf:resource="http://purl.org/dc/dcmitype/StillImage" />
        <dc:title />
      </cc:Work>
    </rdf:RDF>
  </metadata>
  <g
     id="layer1"
     inkscape:groupmode="layer"
     inkscape:label="Layer 1"
     transform="translate(-151.28895,-371.82645)">
    <rect
       id="rect3263"
       pointer-events="none"
       height="20"
       width="70"
       y="444.82645"
       x="274.76114"
       style="fill:none;stroke:none" />
    <rect
       id="rect3273"
       pointer-events="none"
       height="20"
       width="80"
       y="464.82645"
       x="399.76114"
       style="fill:none;stroke:none" />
    <rect
       id="rect3283"
       pointer-events="none"
       transform="matrix(0,1,-1,0,0,0)"
       height="20"
       width="80"
       y="-261.76114"
       x="439.82645"
       style="fill:none;stroke:none" />
    <rect
       id="rect3293"
       pointer-events="none"
       height="20"
       width="20"
       y="414.82645"
       x="199.76112"
       style="fill:none;stroke:none" />
    <rect
       id="rect3303"
       pointer-events="none"
       height="20"
       width="20"
       y="409.82645"
       x="516.76111"
       style="fill:none;stroke:none" />
    <rect
       id="rect3313"
       pointer-events="none"
       height="20"
       width="20"
       y="409.82645"
       x="361.76114"
       style="fill:none;stroke:none" />
    <rect
       id="rect3323"
       pointer-events="none"
       height="20"
       width="20"
       y="519.82648"
       x="199.76112"
       style="fill:none;stroke:none" />
    <path
       id="path3333"
       pointer-events="none"
       stroke-miterlimit="10"
       d="m 177.76113,474.82646 15.63,0"
       inkscape:connector-curvature="0"
       style="fill:none;stroke:#000000;stroke-miterlimit:10" />
    <path
       id="path3335"
       pointer-events="none"
       stroke-miterlimit="10"
       d="m 198.64113,474.82646 -7,3.5 1.75,-3.5 -1.75,-3.5 z"
       inkscape:connector-curvature="0"
       style="fill:#000000;stroke:#000000;stroke-miterlimit:10" />
    <rect
       id="rect3337"
       pointer-events="none"
       height="20"
       width="19"
       y="464.82645"
       x="158.76112"
       style="fill:none;stroke:none" />
    <rect
       id="rect3347"
       pointer-events="none"
       height="30"
       width="40"
       y="371.82645"
       x="289.76114"
       style="fill:none;stroke:none" />
    <path
       id="path3357"
       pointer-events="none"
       stroke-miterlimit="10"
       d="m 510.76113,503.82646 6,-15 6,15 z m 0,-30 6,15 6,-15 z"
       inkscape:connector-curvature="0"
       style="fill:#000000;stroke:#000000;stroke-linejoin:round;stroke-miterlimit:10" />
    <ellipse
       id="ellipse3359"
       pointer-events="none"
       transform="matrix(0,-1,1,0,117.76113,538.82646)"
       ry="20"
       rx="20"
       cy="104"
       cx="64"
       sodipodi:cx="64"
       sodipodi:cy="104"
       sodipodi:rx="20"
       sodipodi:ry="20"
       style="fill:#ffffff;stroke:#000000"
       d="m 84,104 c 0,11.04569 -8.954305,20 -20,20 -11.045695,0 -20,-8.95431 -20,-20 0,-11.045695 8.954305,-20 20,-20 11.045695,0 20,8.954305 20,20 z" />
    <path
       id="path3361"
       pointer-events="none"
       stroke-miterlimit="10"
       d="m 204.56113,484.82646 8.4,-28 m 26,28 -8.4,-28"
       inkscape:connector-curvature="0"
       style="fill:none;stroke:#000000;stroke-miterlimit:10" />
    <g
       id="g3719">
      <rect
         style="fill:#ffffff;stroke:#000000"
         x="274.76114"
         y="416.82645"
         width="70"
         height="30"
         pointer-events="none"
         id="rect3363" />
      <path
         style="fill:none;stroke:#000000;stroke-miterlimit:10"
         inkscape:connector-curvature="0"
         d="m 274.76113,431.82646 10.5,0 3.5,2.5 7,-5 7,5 7,-5 7,5 7,-5 7,5 3.5,-2.5 10.5,0"
         stroke-miterlimit="10"
         pointer-events="none"
         id="path3365" />
      <path
         style="fill:none;stroke:#000000;stroke-miterlimit:10"
         inkscape:connector-curvature="0"
         d="m 292.26113,416.82646 0,-15 -2.8,2.5 5.6,0 -2.8,-2.5 m 17.5,15 0,-15 -2.8,2.5 5.6,0 -2.8,-2.5 m 17.5,15 0,-15 -2.8,2.5 5.6,0 -2.8,-2.5"
         stroke-miterlimit="10"
         pointer-events="none"
         id="path3367" />
    </g>
    <path
       id="path3377"
       pointer-events="none"
       stroke-miterlimit="10"
       d="m 221.76113,454.82646 0,-23 46.63,0"
       inkscape:connector-curvature="0"
       style="fill:none;stroke:#000000;stroke-miterlimit:10" />
    <path
       id="path3379"
       pointer-events="none"
       stroke-miterlimit="10"
       d="m 273.64113,431.82646 -7,3.5 1.75,-3.5 -1.75,-3.5 z"
       inkscape:connector-curvature="0"
       style="fill:#000000;stroke:#000000;stroke-miterlimit:10" />
    <path
       id="path3381"
       pointer-events="none"
       stroke-miterlimit="10"
       d="m 404.76113,448.82646 -35,0 0,103 -148,0 0,-50.63"
       inkscape:connector-curvature="0"
       style="fill:none;stroke:#000000;stroke-miterlimit:10" />
    <path
       id="path3383"
       pointer-events="none"
       stroke-miterlimit="10"
       d="m 221.76113,495.94646 3.5,7 -3.5,-1.75 -3.5,1.75 z"
       inkscape:connector-curvature="0"
       style="fill:#000000;stroke:#000000;stroke-miterlimit:10" />
    <rect
       id="rect3385"
       pointer-events="none"
       height="50"
       width="60"
       y="463.82645"
       x="526.76111"
       style="fill:none;stroke:none" />
    <path
       id="path3395"
       pointer-events="none"
       stroke-miterlimit="10"
       d="m 344.76113,431.82646 53.63,0"
       inkscape:connector-curvature="0"
       style="fill:none;stroke:#000000;stroke-miterlimit:10" />
    <g
       id="g3713">
      <g
         id="g3698">
        <rect
           id="rect3257"
           pointer-events="none"
           transform="scale(-1,-1)"
           height="50"
           width="70"
           y="-464.82645"
           x="-474.76114"
           style="fill:#ffffff;stroke:#000000" />
      </g>
      <path
         style="fill:none;stroke:#000000;stroke-miterlimit:10"
         inkscape:connector-curvature="0"
         d="m 474.76113,448.15646 -10.5,0 -3.5,-4.16 -7,8.33 -7,-8.33 -7,8.33 -7,-8.33 -7,8.33 -7,-8.33 -3.5,4.16 -10.5,0"
         stroke-miterlimit="10"
         pointer-events="none"
         id="path3259" />
      <path
         style="fill:none;stroke:#000000;stroke-miterlimit:10"
         inkscape:connector-curvature="0"
         d="m 474.76113,431.49646 -10.5,0 -3.5,-4.17 -7,8.33 -7,-8.33 -7,8.33 -7,-8.33 -7,8.33 -7,-8.33 -3.5,4.17 -10.5,0"
         stroke-miterlimit="10"
         pointer-events="none"
         id="path3261" />
    </g>
    <path
       id="path3397"
       pointer-events="none"
       stroke-miterlimit="10"
       d="m 403.64113,431.82646 -7,3.5 1.75,-3.5 -1.75,-3.5 z"
       inkscape:connector-curvature="0"
       style="fill:#000000;stroke:#000000;stroke-miterlimit:10" />
    <path
       id="path3399"
       pointer-events="none"
       stroke-miterlimit="10"
       d="m 471.76113,431.82646 45,0 0,33.63"
       inkscape:connector-curvature="0"
       style="fill:none;stroke:#000000;stroke-miterlimit:10" />
    <path
       id="path3401"
       pointer-events="none"
       stroke-miterlimit="10"
       d="m 516.76113,470.70646 -3.5,-7 3.5,1.75 3.5,-1.75 z"
       inkscape:connector-curvature="0"
       style="fill:#000000;stroke:#000000;stroke-miterlimit:10" />
    <g
       id="g3724">
      <rect
         style="fill:#ffffff;stroke:#000000"
         x="476.76114"
         y="543.82648"
         width="60"
         height="80"
         pointer-events="none"
         id="rect3403" />
      <path
         style="fill:none;stroke:#000000;stroke-miterlimit:10"
         inkscape:connector-curvature="0"
         d="m 476.76113,575.82646 60,0 m -50,8 15,0 m 7,0 18,0 m -35,8 8,0 m 4,0 6,0 m 7,0 7,0"
         stroke-miterlimit="10"
         pointer-events="none"
         id="path3405" />
      <g
         style="font-size:11px;fill:#000000;font-family:'Arial,Helvetica'"
         font-size="11px"
         id="g3407"
         transform="translate(157.76113,370.82646)">
        <text
           x="338"
           y="199"
           id="text3409">Gas</text>
      </g>
      <g
         style="font-size:11px;fill:#000000;font-family:'Arial,Helvetica'"
         font-size="11px"
         id="g3411"
         transform="translate(157.76113,370.82646)">
        <text
           x="335"
           y="244.60001"
           id="text3413">Liquid</text>
      </g>
    </g>
    <path
       id="path3423"
       pointer-events="none"
       stroke-miterlimit="10"
       d="m 516.76113,537.45646 0,-33.63"
       inkscape:connector-curvature="0"
       style="fill:none;stroke:#000000;stroke-miterlimit:10" />
    <path
       id="path3425"
       pointer-events="none"
       stroke-miterlimit="10"
       d="m 516.76113,542.70646 -3.5,-7 3.5,1.75 3.5,-1.75 z"
       inkscape:connector-curvature="0"
       style="fill:#000000;stroke:#000000;stroke-miterlimit:10" />
    <path
       id="path3427"
       pointer-events="none"
       stroke-miterlimit="10"
       d="m 496.76113,543.82646 0,-95 -15.63,0"
       inkscape:connector-curvature="0"
       style="fill:none;stroke:#000000;stroke-miterlimit:10" />
    <path
       id="path3429"
       pointer-events="none"
       stroke-miterlimit="10"
       d="m 475.88113,448.82646 7,-3.5 -1.75,3.5 1.75,3.5 z"
       inkscape:connector-curvature="0"
       style="fill:#000000;stroke:#000000;stroke-miterlimit:10" />
    <rect
       id="rect3431"
       pointer-events="none"
       height="20"
       width="20"
       y="509.82645"
       x="516.76111"
       style="fill:none;stroke:none" />
    <rect
       id="rect3441"
       pointer-events="none"
       height="20"
       width="20"
       y="488.82645"
       x="371.76114"
       style="fill:none;stroke:none" />
    <rect
       id="rect3451"
       pointer-events="none"
       height="20"
       width="20"
       y="488.82645"
       x="474.76114"
       style="fill:none;stroke:none" />
    <path
       id="path3461"
       pointer-events="none"
       stroke-miterlimit="10"
       d="m 473.76113,598.82646 -18.63,0"
       inkscape:connector-curvature="0"
       style="fill:none;stroke:#000000;stroke-miterlimit:10" />
    <path
       id="path3463"
       pointer-events="none"
       stroke-miterlimit="10"
       d="m 449.88113,598.82646 7,-3.5 -1.75,3.5 1.75,3.5 z"
       inkscape:connector-curvature="0"
       style="fill:#000000;stroke:#000000;stroke-miterlimit:10" />
    <rect
       id="rect3465"
       pointer-events="none"
       height="20"
       width="60"
       y="586.82648"
       x="387.76114"
       style="fill:none;stroke:none" />
    <text
       sodipodi:linespacing="125%"
       id="text3732"
       y="602.07648"
       x="374.28571"
       style="font-size:14px;font-style:normal;font-variant:normal;font-weight:normal;font-stretch:normal;text-align:start;line-height:125%;letter-spacing:0px;word-spacing:0px;writing-mode:lr-tb;text-anchor:start;fill:#000000;fill-opacity:1;stroke:none;font-family:Sans;-inkscape-font-specification:Sans"
       xml:space="preserve"><tspan
         y="602.07648"
         x="374.28571"
         id="tspan3734"
         sodipodi:role="line">Liquid out</tspan></text>
    <text
       sodipodi:linespacing="125%"
       id="text3736"
       y="474.36218"
       x="529.57141"
       style="font-size:14px;font-style:normal;font-variant:normal;font-weight:normal;font-stretch:normal;text-align:start;line-height:125%;letter-spacing:0px;word-spacing:0px;writing-mode:lr-tb;text-anchor:start;fill:#000000;fill-opacity:1;stroke:none;font-family:Sans;-inkscape-font-specification:Sans"
       xml:space="preserve"><tspan
         y="474.36218"
         x="529.57141"
         id="tspan3738"
         sodipodi:role="line">Joule-</tspan><tspan
         id="tspan3740"
         y="491.86218"
         x="529.57141"
         sodipodi:role="line">Thomson</tspan><tspan
         id="tspan3742"
         y="509.36218"
         x="529.57141"
         sodipodi:role="line">valve</tspan></text>
    <text
       sodipodi:linespacing="125%"
       id="text3744"
       y="481.07648"
       x="400"
       style="font-size:14px;font-style:normal;font-variant:normal;font-weight:normal;font-stretch:normal;text-align:start;line-height:125%;letter-spacing:0px;word-spacing:0px;writing-mode:lr-tb;text-anchor:start;fill:#000000;fill-opacity:1;stroke:none;font-family:Sans;-inkscape-font-specification:Sans"
       xml:space="preserve"><tspan
         y="481.07648"
         x="400"
         id="tspan3746"
         sodipodi:role="line">Recuperator</tspan></text>
    <text
       sodipodi:linespacing="125%"
       id="text3748"
       y="462.79074"
       x="286.42856"
       style="font-size:14px;font-style:normal;font-variant:normal;font-weight:normal;font-stretch:normal;text-align:start;line-height:125%;letter-spacing:0px;word-spacing:0px;writing-mode:lr-tb;text-anchor:start;fill:#000000;fill-opacity:1;stroke:none;font-family:Sans;-inkscape-font-specification:Sans"
       xml:space="preserve"><tspan
         y="462.79074"
         x="286.42856"
         id="tspan3750"
         sodipodi:role="line">Cooler</tspan></text>
    <text
       transform="matrix(0,-1,1,0,0,0)"
       sodipodi:linespacing="125%"
       id="text3752"
       y="259.92795"
       x="-528.52588"
       style="font-size:14px;font-style:normal;font-variant:normal;font-weight:normal;font-stretch:normal;text-align:start;line-height:125%;letter-spacing:0px;word-spacing:0px;writing-mode:lr-tb;text-anchor:start;fill:#000000;fill-opacity:1;stroke:none;font-family:Sans;-inkscape-font-specification:Sans"
       xml:space="preserve"><tspan
         y="259.92795"
         x="-528.52588"
         id="tspan3754"
         sodipodi:role="line">Compressor</tspan></text>
    <g
       transform="matrix(0.33157543,0,0,0.33157543,199.19444,272.74518)"
       id="g3266">
      <g
         style="font-style:normal;font-variant:normal;font-weight:normal;font-stretch:normal;letter-spacing:normal;word-spacing:normal;text-anchor:start;fill:none;stroke:#000000;stroke-linecap:butt;stroke-linejoin:miter;stroke-miterlimit:10.43299961;stroke-opacity:1;stroke-dasharray:none;stroke-dashoffset:0"
         id="g3268"
         transform="matrix(1.0629921,0,0,-1.0629921,-186.02362,789.27165)"
         xml:space="preserve"
         stroke-miterlimit="10.433"
         font-style="normal"
         font-variant="normal"
         font-weight="normal"
         font-stretch="normal"
         font-size-adjust="none"
         letter-spacing="normal"
         word-spacing="normal"><path
           style="fill:#000000;stroke-width:0"
           inkscape:connector-curvature="0"
           d="m 482,449.49 0,0.12 -0.01,0.13 -0.02,0.12 -0.02,0.13 -0.03,0.12 -0.03,0.12 -0.04,0.12 -0.05,0.12 -0.05,0.11 -0.06,0.12 -0.06,0.11 -0.07,0.1 -0.07,0.11 -0.08,0.1 -0.08,0.1 -0.08,0.09 -0.09,0.09 -0.1,0.09 -0.1,0.08 -0.1,0.08 -0.11,0.07 -0.11,0.07 -0.11,0.06 -0.12,0.06 -0.12,0.05 -0.13,0.04 -0.12,0.04 -0.13,0.03 -0.14,0.03 -0.13,0.01 -0.14,0.02 -0.14,0 c -1.68,0 -2.68,-1.39 -2.68,-2.64 0,-1.35 1.14,-2.64 2.64,-2.64 1.68,0 2.68,1.39 2.68,2.64 z"
           id="path3270" /><path
           style="fill:#000000;stroke-width:0"
           inkscape:connector-curvature="0"
           d="m 477.35,406.5 0.72,0.29 0.72,0.33 0.71,0.35 0.71,0.4 0.7,0.42 0.69,0.45 0.68,0.48 0.68,0.51 0.65,0.54 0.65,0.56 0.63,0.59 0.61,0.61 0.6,0.64 0.57,0.66 0.56,0.68 0.54,0.7 0.51,0.72 0.49,0.73 0.46,0.76 0.44,0.77 0.41,0.79 0.38,0.8 0.35,0.82 0.32,0.83 0.29,0.84 0.25,0.85 0.21,0.87 0.18,0.87 0.15,0.88 0.1,0.89 0.06,0.89 0.02,0.9 c 0,8.03 -5.28,13.4 -12.71,13.4 l -0.3,-1.25 c 4.98,0 8.62,-3.87 8.62,-10.56 0,-4.98 -2.54,-16.64 -10.9,-21.31 -0.25,1.73 -0.75,5.37 -4.39,5.37 v -1.09 c 2.09,0 3.04,-1.2 3.04,-4.23 0,-0.75 -0.06,-0.8 -0.56,-1 -1.28,-0.55 -2.78,-0.89 -4.17,-0.89 h 0 c -0.7,0 -2.3,0 -2.3,2.14 0,1.98 1.89,3.98 3.99,3.98 v 1.09 c -2.64,0 -5.08,-2.5 -5.08,-5.07 0,-1 0.3,-1.55 0.3,-1.6 h 0 c -3.89,1.53 -5.58,5.42 -5.58,9.91 0,3.44 1.29,10.51 5.08,15.89 3.64,5.09 8.32,7.37 11.95,7.37 l 0.3,1.25 c -10.75,0 -21.72,-11.31 -21.72,-22.92 0,-8.26 5.58,-13.29 12.76,-13.29 1.24,0 2.94,0.2 4.88,0.75 -0.21,-3.1 -0.21,-3.19 -0.21,-3.85 0,-1.59 0,-5.48 4.15,-5.48 5.92,0 8.31,9.12 8.31,9.67 0,0.34 -0.35,0.5 -0.55,0.5 -0.39,0 -0.5,-0.25 -0.59,-0.55 -1.19,-3.54 -4.08,-4.78 -5.83,-4.78 -2.3,0 -3.05,1.34 -3.53,5.13 z"
           id="path3272" /><path
           style="fill:#000000;stroke-width:0"
           inkscape:connector-curvature="0"
           d="m 524.18,419.73 0.03,0.12 0.03,0.11 0.02,0.11 0.03,0.1 0.03,0.1 0.03,0.09 0.03,0.08 0.04,0.08 0.03,0.08 0.04,0.07 0.04,0.07 0.05,0.06 0.05,0.06 0.06,0.05 0.06,0.05 0.07,0.05 0.07,0.04 0.08,0.04 0.09,0.03 0.1,0.03 0.1,0.03 0.06,0.01 0.06,0.01 0.06,0.02 0.06,0.01 0.07,0.01 0.07,0 0.07,0.01 0.07,0.01 0.08,0.01 0.08,0 0.08,0.01 0.09,0.01 0.09,0 0.09,0 0.1,0.01 0.09,0 0.11,0 0.1,0.01 0.11,0 0.11,0 0.12,0 0.12,0 c 0.76,0 1.18,0 1.18,0.76 0,0.14 -0.11,0.49 -0.56,0.49 -1.02,0 -3.55,-0.14 -4.56,-0.14 -0.6,0 -1.81,0 -2.41,0.03 -0.69,0.05 -1.53,0.11 -2.19,0.11 -0.21,0 -0.73,0 -0.73,-0.77 0,-0.48 0.42,-0.48 1.11,-0.48 0.03,0 0.7,0 1.33,-0.08 0.73,-0.06 0.79,-0.14 0.79,-0.48 0,-0.04 0,-0.24 -0.14,-0.77 l -2.04,-8.22 h -11.68 l 2.02,8.08 c 0.31,1.19 0.39,1.47 3.06,1.47 0.6,0 1.05,0 1.05,0.76 0,0.14 -0.11,0.49 -0.56,0.49 -1,0 -3.55,-0.14 -4.57,-0.14 -0.59,0 -1.81,0 -2.4,0.03 -0.69,0.05 -1.53,0.11 -2.19,0.11 -0.2,0 -0.73,0 -0.73,-0.77 0,-0.48 0.42,-0.48 1.12,-0.48 0.03,0 0.69,0 1.31,-0.08 0.74,-0.06 0.82,-0.14 0.82,-0.48 0,-0.07 0,-0.24 -0.14,-0.77 l -4.65,-18.5 c -0.28,-1.19 -0.34,-1.47 -3.06,-1.47 -0.59,0 -1.04,0 -1.04,-0.73 0,-0.35 0.23,-0.52 0.56,-0.52 1,0 3.51,0.14 4.51,0.14 0.6,0 1.82,0 2.41,-0.03 0.7,-0.05 1.58,-0.11 2.23,-0.11 0.18,0 0.74,0 0.74,0.74 0,0.51 -0.35,0.51 -1.16,0.51 -0.54,0 -0.69,0 -1.31,0.08 -0.78,0.09 -0.78,0.17 -0.78,0.52 0,0.03 0,0.25 0.14,0.76 l 2.31,9.14 h 11.67 l -2.26,-9.03 c -0.28,-1.19 -0.36,-1.47 -3.08,-1.47 -0.58,0 -1.03,0 -1.03,-0.73 0,-0.35 0.23,-0.52 0.54,-0.52 1.02,0 3.52,0.14 4.54,0.14 0.59,0 1.81,0 2.4,-0.03 0.71,-0.05 1.56,-0.11 2.24,-0.11 0.17,0 0.73,0 0.73,0.74 0,0.51 -0.36,0.51 -1.16,0.51 -0.56,0 -0.7,0 -1.32,0.08 -0.77,0.09 -0.77,0.17 -0.77,0.52 0,0.21 0.11,0.56 0.14,0.76 z"
           id="path3274" /></g>    </g>
    <text
       xml:space="preserve"
       style="font-size:14px;font-style:normal;font-variant:normal;font-weight:bold;font-stretch:normal;text-align:start;line-height:125%;letter-spacing:0px;word-spacing:0px;writing-mode:lr-tb;text-anchor:start;fill:#000000;fill-opacity:1;stroke:none;font-family:Sans;-inkscape-font-specification:Sans Bold"
       x="204.23254"
       y="530.0321"
       id="text3498"
       sodipodi:linespacing="125%"><tspan
         sodipodi:role="line"
         id="tspan3500"
         x="204.23254"
         y="530.0321">1</tspan></text>
    <text
       xml:space="preserve"
       style="font-size:14px;font-style:normal;font-variant:normal;font-weight:bold;font-stretch:normal;text-align:start;line-height:125%;letter-spacing:0px;word-spacing:0px;writing-mode:lr-tb;text-anchor:start;fill:#000000;fill-opacity:1;stroke:none;font-family:Sans;-inkscape-font-specification:Sans Bold"
       x="205.76807"
       y="427.17929"
       id="text3502"
       sodipodi:linespacing="125%"><tspan
         sodipodi:role="line"
         id="tspan3504"
         x="205.76807"
         y="427.17929">2</tspan></text>
    <text
       xml:space="preserve"
       style="font-size:14px;font-style:normal;font-variant:normal;font-weight:bold;font-stretch:normal;text-align:start;line-height:125%;letter-spacing:0px;word-spacing:0px;writing-mode:lr-tb;text-anchor:start;fill:#000000;fill-opacity:1;stroke:none;font-family:Sans;-inkscape-font-specification:Sans Bold"
       x="369.81686"
       y="424.0874"
       id="text3506"
       sodipodi:linespacing="125%"><tspan
         sodipodi:role="line"
         id="tspan3508"
         x="369.81686"
         y="424.0874">3</tspan></text>
    <text
       xml:space="preserve"
       style="font-size:14px;font-style:normal;font-variant:normal;font-weight:bold;font-stretch:normal;text-align:start;line-height:125%;letter-spacing:0px;word-spacing:0px;writing-mode:lr-tb;text-anchor:start;fill:#000000;fill-opacity:1;stroke:none;font-family:Sans;-inkscape-font-specification:Sans Bold"
       x="519.1377"
       y="423.96609"
       id="text3510"
       sodipodi:linespacing="125%"><tspan
         sodipodi:role="line"
         id="tspan3512"
         x="519.1377"
         y="423.96609">4</tspan></text>
    <text
       xml:space="preserve"
       style="font-size:14px;font-style:normal;font-variant:normal;font-weight:bold;font-stretch:normal;text-align:start;line-height:125%;letter-spacing:0px;word-spacing:0px;writing-mode:lr-tb;text-anchor:start;fill:#000000;fill-opacity:1;stroke:none;font-family:Sans;-inkscape-font-specification:Sans Bold"
       x="523.6438"
       y="529.56763"
       id="text3514"
       sodipodi:linespacing="125%"><tspan
         sodipodi:role="line"
         id="tspan3516"
         x="523.6438"
         y="529.56763">5</tspan></text>
    <text
       xml:space="preserve"
       style="font-size:14px;font-style:normal;font-variant:normal;font-weight:bold;font-stretch:normal;text-align:start;line-height:125%;letter-spacing:0px;word-spacing:0px;writing-mode:lr-tb;text-anchor:start;fill:#000000;fill-opacity:1;stroke:none;font-family:Sans;-inkscape-font-specification:Sans Bold"
       x="479.29709"
       y="508.01129"
       id="text3518"
       sodipodi:linespacing="125%"><tspan
         sodipodi:role="line"
         id="tspan3520"
         x="479.29709"
         y="508.01129">6</tspan></text>
    <text
       xml:space="preserve"
       style="font-size:14px;font-style:normal;font-variant:normal;font-weight:bold;font-stretch:normal;text-align:start;line-height:125%;letter-spacing:0px;word-spacing:0px;writing-mode:lr-tb;text-anchor:start;fill:#000000;fill-opacity:1;stroke:none;font-family:Sans;-inkscape-font-specification:Sans Bold"
       x="376.18082"
       y="509.76865"
       id="text3522"
       sodipodi:linespacing="125%"><tspan
         sodipodi:role="line"
         id="tspan3524"
         x="376.18082"
         y="509.76865">7</tspan></text>
    <g
       id="g3421"
       transform="matrix(0.36918884,0,0,0.36918884,35.1506,347.1871)">
      <g
         word-spacing="normal"
         letter-spacing="normal"
         font-size-adjust="none"
         font-stretch="normal"
         font-weight="normal"
         font-variant="normal"
         font-style="normal"
         stroke-miterlimit="10.433"
         xml:space="preserve"
         transform="matrix(1.0629921,0,0,-1.0629921,-186.02362,789.27165)"
         id="content-4"
         style="font-style:normal;font-variant:normal;font-weight:normal;font-stretch:normal;letter-spacing:normal;word-spacing:normal;text-anchor:start;fill:none;stroke:#000000;stroke-linecap:butt;stroke-linejoin:miter;stroke-miterlimit:10.43299961;stroke-opacity:1;stroke-dasharray:none;stroke-dashoffset:0"><path
           id="path3424"
           d="m 513.8955,430.2215 0.23,0.4 0.24,0.4 0.24,0.38 0.24,0.37 0.13,0.18 0.13,0.17 0.14,0.17 0.13,0.16 0.14,0.16 0.15,0.16 0.15,0.15 0.16,0.14 0.16,0.14 0.17,0.13 0.17,0.13 0.18,0.12 0.19,0.11 0.19,0.11 0.2,0.1 0.21,0.09 0.22,0.09 0.23,0.08 0.24,0.07 0.25,0.06 0.25,0.05 0.27,0.05 0.28,0.04 0.29,0.02 c 0.45,0.05 0.95,0.05 0.95,1 0,0.19 -0.2,0.55 -0.61,0.55 -1.19,0 -2.58,-0.16 -3.83,-0.16 -1.7,0 -3.55,0.16 -5.19,0.16 -0.29,0 -0.93,0 -0.93,-0.95 0,-0.55 0.43,-0.6 0.73,-0.6 1.2,-0.04 2.95,-0.45 2.95,-1.93 0,-0.55 -0.25,-0.96 -0.65,-1.66 l -13.46,-23.45 -1.84,24.7 c -0.05,1 -0.14,2.3 3.48,2.34 0.86,0 1.36,0 1.36,1 0,0.5 -0.56,0.55 -0.75,0.55 -2,0 -4.09,-0.16 -6.07,-0.16 -1.16,0 -4.1,0.16 -5.24,0.16 -0.3,0 -0.95,0 -0.95,-1 0,-0.55 0.5,-0.55 1.2,-0.55 2.19,0 2.53,-0.29 2.64,-1.25 l 0.3,-3.82 -12.61,-21.97 -1.89,25.25 c 0,0.59 0,1.75 3.78,1.79 0.5,0 1.05,0 1.05,1 0,0.55 -0.6,0.55 -0.69,0.55 -2,0 -4.09,-0.16 -6.13,-0.16 -1.75,0 -3.54,0.16 -5.23,0.16 -0.25,0 -0.91,0 -0.91,-0.95 0,-0.6 0.46,-0.6 1.25,-0.6 2.5,0 2.55,-0.45 2.64,-1.84 l 2.25,-30.44 c 0.05,-0.9 0.1,-1.29 0.8,-1.29 0.6,0 0.74,0.29 1.19,1.04 l 14.66,25.41 1.84,-25.16 c 0.09,-1.04 0.19,-1.29 0.8,-1.29 0.64,0 0.93,0.5 1.18,0.93 z"
           inkscape:connector-curvature="0"
           style="fill:#000000;stroke-width:0" /></g>    </g>
  </g>
</svg>
