<?xml version="1.0" encoding="UTF-8" standalone="no"?>
<svg
   xmlns:dc="http://purl.org/dc/elements/1.1/"
   xmlns:cc="http://creativecommons.org/ns#"
   xmlns:rdf="http://www.w3.org/1999/02/22-rdf-syntax-ns#"
   xmlns:svg="http://www.w3.org/2000/svg"
   xmlns="http://www.w3.org/2000/svg"
   xmlns:sodipodi="http://sodipodi.sourceforge.net/DTD/sodipodi-0.dtd"
   xmlns:inkscape="http://www.inkscape.org/namespaces/inkscape"
   width="438"
   height="256.57001"
   version="1.1"
   id="svg3713"
   inkscape:version="0.48.4 r9939"
   sodipodi:docname="LindeHampson.svg">
  <metadata
     id="metadata3985">
    <rdf:RDF>
      <cc:Work
         rdf:about="">
        <dc:format>image/svg+xml</dc:format>
        <dc:type
           rdf:resource="http://purl.org/dc/dcmitype/StillImage" />
        <dc:title></dc:title>
      </cc:Work>
    </rdf:RDF>
  </metadata>
  <sodipodi:namedview
     pagecolor="#ffffff"
     bordercolor="#666666"
     borderopacity="1"
     objecttolerance="10"
     gridtolerance="10"
     guidetolerance="10"
     inkscape:pageopacity="0"
     inkscape:pageshadow="2"
     inkscape:window-width="1280"
     inkscape:window-height="751"
     id="namedview3983"
     showgrid="false"
     inkscape:zoom="1.4142136"
     inkscape:cx="184.24879"
     inkscape:cy="73.781633"
     inkscape:window-x="0"
     inkscape:window-y="25"
     inkscape:window-maximized="1"
     inkscape:current-layer="svg3713"
     fit-margin-top="0"
     fit-margin-left="0"
     fit-margin-right="0"
     fit-margin-bottom="0" />
  <defs
     id="defs3715" />
  <rect
     style="fill:none;stroke:none"
     id="rect3809"
     pointer-events="none"
     height="30"
     width="40"
     y="4.0699296"
     x="131" />
  <rect
     style="fill:#ffffff;stroke:#000000"
     id="rect3719"
     pointer-events="none"
     transform="scale(-1,-1)"
     height="50"
     width="70"
     y="-93.069931"
     x="-320" />
  <path
     style="fill:none;stroke:#000000;stroke-miterlimit:10"
     inkscape:connector-curvature="0"
     id="path3721"
     pointer-events="none"
     stroke-miterlimit="10"
     d="m 320,76.399929 -10.5,0 -3.5,-4.16 -7,8.33 -7,-8.33 -7,8.33 -7,-8.33 -7,8.33 -7,-8.33 -3.5,4.16 -10.5,0" />
  <path
     style="fill:none;stroke:#000000;stroke-miterlimit:10"
     inkscape:connector-curvature="0"
     id="path3723"
     pointer-events="none"
     stroke-miterlimit="10"
     d="m 320,59.739929 -10.5,0 -3.5,-4.17 -7,8.33 -7,-8.33 -7,8.33 -7,-8.33 -7,8.33 -7,-8.33 -3.5,4.17 -10.5,0" />
  <rect
     style="fill:none;stroke:none"
     id="rect3725"
     pointer-events="none"
     height="20"
     width="70"
     y="73.069931"
     x="120" />
  <rect
     style="fill:none;stroke:none"
     id="rect3735"
     pointer-events="none"
     height="20"
     width="80"
     y="93.069931"
     x="245" />
  <rect
     style="fill:none;stroke:none"
     id="rect3745"
     pointer-events="none"
     transform="matrix(0,1,-1,0,0,0)"
     height="20"
     width="80"
     y="-107"
     x="68.069931" />
  <rect
     style="fill:none;stroke:none"
     id="rect3755"
     pointer-events="none"
     height="20"
     width="20"
     y="132.06993"
     x="39" />
  <rect
     style="fill:none;stroke:none"
     id="rect3765"
     pointer-events="none"
     height="20"
     width="20"
     y="34.069931"
     x="207" />
  <rect
     style="fill:none;stroke:none"
     id="rect3775"
     pointer-events="none"
     height="20"
     width="20"
     y="33.069931"
     x="68" />
  <rect
     style="fill:none;stroke:none"
     id="rect3785"
     pointer-events="none"
     height="20"
     width="20"
     y="176.06993"
     x="37" />
  <path
     style="fill:none;stroke:#000000;stroke-miterlimit:10"
     inkscape:connector-curvature="0"
     id="path3795"
     pointer-events="none"
     stroke-miterlimit="10"
     d="m 23,103.06993 15.63,0" />
  <path
     style="fill:#000000;stroke:#000000;stroke-miterlimit:10"
     inkscape:connector-curvature="0"
     id="path3797"
     pointer-events="none"
     stroke-miterlimit="10"
     d="m 43.88,103.06993 -7,3.5 1.75,-3.5 -1.75,-3.500001 z" />
  <rect
     style="fill:none;stroke:none"
     id="rect3799"
     pointer-events="none"
     height="20"
     width="19"
     y="93.069931"
     x="4" />
  <path
     style="fill:#000000;stroke:#000000;stroke-linejoin:round;stroke-miterlimit:10"
     inkscape:connector-curvature="0"
     id="path3819"
     pointer-events="none"
     stroke-miterlimit="10"
     d="m 356,136.06993 6,-15 6,15 z m 0,-30 6,15 6,-15 z" />
  <ellipse
     style="fill:#ffffff;stroke:#000000"
     sodipodi:ry="20"
     sodipodi:rx="20"
     sodipodi:cy="104"
     sodipodi:cx="64"
     d="m 84,104 c 0,11.04569 -8.954305,20 -20,20 -11.045695,0 -20,-8.95431 -20,-20 0,-11.045695 8.954305,-20 20,-20 11.045695,0 20,8.954305 20,20 z"
     id="ellipse3821"
     pointer-events="none"
     transform="matrix(0,-1,1,0,-37,167.06993)"
     ry="20"
     rx="20"
     cy="104"
     cx="64" />
  <path
     style="fill:none;stroke:#000000;stroke-miterlimit:10"
     inkscape:connector-curvature="0"
     id="path3823"
     pointer-events="none"
     stroke-miterlimit="10"
     d="m 49.8,113.06993 8.4,-28.000001 m 26,28.000001 -8.4,-28.000001" />
  <rect
     style="fill:#ffffff;stroke:#000000"
     id="rect3825"
     pointer-events="none"
     height="30"
     width="70"
     y="45.069931"
     x="120" />
  <path
     style="fill:none;stroke:#000000;stroke-miterlimit:10"
     inkscape:connector-curvature="0"
     id="path3827"
     pointer-events="none"
     stroke-miterlimit="10"
     d="m 120,60.069929 10.5,0 3.5,2.5 7,-5 7,5 7,-5 7,5 7,-5 7,5 3.5,-2.5 10.5,0" />
  <path
     style="fill:none;stroke:#000000;stroke-miterlimit:10"
     inkscape:connector-curvature="0"
     id="path3829"
     pointer-events="none"
     stroke-miterlimit="10"
     d="m 137.5,45.069929 0,-15 -2.8,2.5 5.6,0 -2.8,-2.5 m 17.5,15 0,-15 -2.8,2.5 5.6,0 -2.8,-2.5 m 17.5,15 0,-15 -2.8,2.5 5.6,0 -2.8,-2.5" />
  <path
     style="fill:none;stroke:#000000;stroke-miterlimit:10"
     inkscape:connector-curvature="0"
     id="path3839"
     pointer-events="none"
     stroke-miterlimit="10"
     d="m 67,83.069929 0,-23 46.63,0" />
  <path
     style="fill:#000000;stroke:#000000;stroke-miterlimit:10"
     inkscape:connector-curvature="0"
     id="path3841"
     pointer-events="none"
     stroke-miterlimit="10"
     d="m 118.88,60.069929 -7,3.5 1.75,-3.5 -1.75,-3.5 z" />
  <rect
     style="fill:none;stroke:none"
     id="rect3843"
     pointer-events="none"
     height="50"
     width="60"
     y="96.069931"
     x="372" />
  <path
     style="fill:none;stroke:#000000;stroke-miterlimit:10"
     inkscape:connector-curvature="0"
     id="path3853"
     pointer-events="none"
     stroke-miterlimit="10"
     d="m 190,60.069929 53.63,0" />
  <path
     style="fill:#000000;stroke:#000000;stroke-miterlimit:10"
     inkscape:connector-curvature="0"
     id="path3855"
     pointer-events="none"
     stroke-miterlimit="10"
     d="m 248.88,60.069929 -7,3.5 1.75,-3.5 -1.75,-3.5 z" />
  <rect
     style="fill:#ffffff;stroke:#000000"
     id="rect3857"
     pointer-events="none"
     height="80"
     width="60"
     y="172.06993"
     x="322" />
  <path
     style="fill:none;stroke:#000000;stroke-miterlimit:10"
     inkscape:connector-curvature="0"
     id="path3859"
     pointer-events="none"
     stroke-miterlimit="10"
     d="m 322,204.06993 60,0 m -50,8 15,0 m 7,0 18,0 m -35,8 8,0 m 4,0 6,0 m 7,0 7,0" />
  <g
     style="font-size:11px;fill:#000000;font-family:'Arial,Helvetica'"
     id="g3861"
     font-size="11px"
     transform="translate(3,-0.9300706)">
    <text
       id="text3863"
       y="199"
       x="338">Gas</text>
  </g>
  <g
     style="font-size:11px;fill:#000000;font-family:'Arial,Helvetica'"
     id="g3865"
     font-size="11px"
     transform="translate(1,-0.9300706)">
    <text
       id="text3867"
       y="244.60001"
       x="335">Liquid</text>
  </g>
  <path
     style="fill:none;stroke:#000000;stroke-miterlimit:10"
     inkscape:connector-curvature="0"
     id="path3877"
     pointer-events="none"
     stroke-miterlimit="10"
     d="m 362,165.69993 0,-29.63" />
  <path
     style="fill:#000000;stroke:#000000;stroke-miterlimit:10"
     inkscape:connector-curvature="0"
     id="path3879"
     pointer-events="none"
     stroke-miterlimit="10"
     d="m 362,170.94993 -3.5,-7 3.5,1.75 3.5,-1.75 z" />
  <rect
     style="fill:none;stroke:none"
     id="rect3881"
     pointer-events="none"
     height="20"
     width="20"
     y="34.069931"
     x="336" />
  <rect
     style="fill:none;stroke:none"
     id="rect3891"
     pointer-events="none"
     height="20"
     width="20"
     y="141.06993"
     x="317" />
  <path
     style="fill:none;stroke:#000000;stroke-miterlimit:10"
     inkscape:connector-curvature="0"
     id="path3901"
     pointer-events="none"
     stroke-miterlimit="10"
     d="m 319,227.06993 -18.63,0" />
  <path
     style="fill:#000000;stroke:#000000;stroke-miterlimit:10"
     inkscape:connector-curvature="0"
     id="path3903"
     pointer-events="none"
     stroke-miterlimit="10"
     d="m 295.12,227.06993 7,-3.5 -1.75,3.5 1.75,3.5 z" />
  <path
     style="fill:#ffffff;stroke:#000000;stroke-miterlimit:10"
     inkscape:connector-curvature="0"
     id="path3915"
     pointer-events="none"
     stroke-miterlimit="10"
     d="m 63,158.06993 0,15 7.5,0 0,-5 7.5,0 0,-5 -7.5,0 0,-5 -7.5,0" />
  <path
     style="fill:none;stroke:#000000;stroke-miterlimit:10"
     inkscape:connector-curvature="0"
     id="path3917"
     pointer-events="none"
     stroke-miterlimit="10"
     d="m 67,158.06993 0,-28.63" />
  <path
     style="fill:#000000;stroke:#000000;stroke-miterlimit:10"
     inkscape:connector-curvature="0"
     id="path3919"
     pointer-events="none"
     stroke-miterlimit="10"
     d="m 67,124.18993 3.5,7 -3.5,-1.75 -3.5,1.75 z" />
  <path
     style="fill:none;stroke:#000000;stroke-miterlimit:10"
     inkscape:connector-curvature="0"
     id="path3921"
     pointer-events="none"
     stroke-miterlimit="10"
     d="m 250,77.069929 -45,0 0,89.000001 -120.63,0" />
  <path
     style="fill:#000000;stroke:#000000;stroke-miterlimit:10"
     inkscape:connector-curvature="0"
     id="path3923"
     pointer-events="none"
     stroke-miterlimit="10"
     d="m 79.12,166.06993 7,-3.5 -1.75,3.5 1.75,3.5 z" />
  <path
     style="fill:none;stroke:#000000;stroke-miterlimit:10"
     inkscape:connector-curvature="0"
     id="path3925"
     pointer-events="none"
     stroke-miterlimit="10"
     d="m 67,196.06993 0,-13.63" />
  <path
     style="fill:#000000;stroke:#000000;stroke-miterlimit:10"
     inkscape:connector-curvature="0"
     id="path3927"
     pointer-events="none"
     stroke-miterlimit="10"
     d="m 67,177.18993 3.5,7 -3.5,-1.75 -3.5,1.75 z" />
  <rect
     style="fill:none;stroke:none"
     id="rect3929"
     pointer-events="none"
     height="20"
     width="40"
     y="196.06993"
     x="47" />
  <path
     style="fill:#000000;stroke:#000000;stroke-linejoin:round;stroke-miterlimit:10"
     inkscape:connector-curvature="0"
     id="path3939"
     pointer-events="none"
     stroke-miterlimit="10"
     d="m 336,136.06993 6,-15 6,15 z m 0,-30 6,15 6,-15 z" />
  <path
     style="fill:none;stroke:#000000;stroke-miterlimit:10"
     inkscape:connector-curvature="0"
     id="path3941"
     pointer-events="none"
     stroke-miterlimit="10"
     d="m 342,136.07597 0,35.99396"
     sodipodi:nodetypes="cc" />
  <path
     style="fill:none;stroke:#000000;stroke-miterlimit:10"
     inkscape:connector-curvature="0"
     id="path3945"
     pointer-events="none"
     stroke-miterlimit="10"
     d="m 342,106.06993 0,-29.000001 -15.63,0" />
  <path
     style="fill:#000000;stroke:#000000;stroke-miterlimit:10"
     inkscape:connector-curvature="0"
     id="path3947"
     pointer-events="none"
     stroke-miterlimit="10"
     d="m 321.12,77.069929 7,-3.5 -1.75,3.5 1.75,3.5 z" />
  <rect
     style="fill:none;stroke:none"
     id="rect3949"
     pointer-events="none"
     height="20"
     width="20"
     y="140.06993"
     x="366" />
  <rect
     style="fill:none;stroke:none"
     id="rect3959"
     pointer-events="none"
     height="20"
     width="20"
     y="82.069931"
     x="320" />
  <rect
     style="fill:none;stroke:none"
     id="rect3969"
     pointer-events="none"
     height="20"
     width="20"
     y="80.069931"
     x="205" />
  <path
     style="fill:none;stroke:#000000;stroke-miterlimit:10"
     inkscape:connector-curvature="0"
     id="path3979"
     pointer-events="none"
     stroke-miterlimit="10"
     d="m 362,106.771 0,-46.701071 -42,0"
     sodipodi:nodetypes="ccc" />
  <text
     xml:space="preserve"
     style="font-size:11.05300045px;font-style:normal;font-variant:normal;font-weight:normal;font-stretch:normal;text-align:start;line-height:125%;letter-spacing:0px;word-spacing:0px;writing-mode:lr-tb;text-anchor:start;fill:#000000;fill-opacity:1;stroke:none;font-family:Sans;-inkscape-font-specification:Sans"
     x="48.287708"
     y="211.84088"
     id="text4119"
     sodipodi:linespacing="125%"><tspan
       sodipodi:role="line"
       id="tspan4121"
       x="48.287708"
       y="211.84088">Gas in</tspan></text>
  <g
     id="g3421"
     transform="matrix(0.36918884,0,0,0.36918884,-111.71812,-24.695939)">
    <g
       word-spacing="normal"
       letter-spacing="normal"
       font-size-adjust="none"
       font-stretch="normal"
       font-weight="normal"
       font-variant="normal"
       font-style="normal"
       stroke-miterlimit="10.433"
       xml:space="preserve"
       transform="matrix(1.0629921,0,0,-1.0629921,-186.02362,789.27165)"
       id="content-4"
       style="font-style:normal;font-variant:normal;font-weight:normal;font-stretch:normal;letter-spacing:normal;word-spacing:normal;text-anchor:start;fill:none;stroke:#000000;stroke-linecap:butt;stroke-linejoin:miter;stroke-miterlimit:10.43299961;stroke-opacity:1;stroke-dasharray:none;stroke-dashoffset:0"><path
         id="path3424"
         d="m 513.8955,430.2215 0.23,0.4 0.24,0.4 0.24,0.38 0.24,0.37 0.13,0.18 0.13,0.17 0.14,0.17 0.13,0.16 0.14,0.16 0.15,0.16 0.15,0.15 0.16,0.14 0.16,0.14 0.17,0.13 0.17,0.13 0.18,0.12 0.19,0.11 0.19,0.11 0.2,0.1 0.21,0.09 0.22,0.09 0.23,0.08 0.24,0.07 0.25,0.06 0.25,0.05 0.27,0.05 0.28,0.04 0.29,0.02 c 0.45,0.05 0.95,0.05 0.95,1 0,0.19 -0.2,0.55 -0.61,0.55 -1.19,0 -2.58,-0.16 -3.83,-0.16 -1.7,0 -3.55,0.16 -5.19,0.16 -0.29,0 -0.93,0 -0.93,-0.95 0,-0.55 0.43,-0.6 0.73,-0.6 1.2,-0.04 2.95,-0.45 2.95,-1.93 0,-0.55 -0.25,-0.96 -0.65,-1.66 l -13.46,-23.45 -1.84,24.7 c -0.05,1 -0.14,2.3 3.48,2.34 0.86,0 1.36,0 1.36,1 0,0.5 -0.56,0.55 -0.75,0.55 -2,0 -4.09,-0.16 -6.07,-0.16 -1.16,0 -4.1,0.16 -5.24,0.16 -0.3,0 -0.95,0 -0.95,-1 0,-0.55 0.5,-0.55 1.2,-0.55 2.19,0 2.53,-0.29 2.64,-1.25 l 0.3,-3.82 -12.61,-21.97 -1.89,25.25 c 0,0.59 0,1.75 3.78,1.79 0.5,0 1.05,0 1.05,1 0,0.55 -0.6,0.55 -0.69,0.55 -2,0 -4.09,-0.16 -6.13,-0.16 -1.75,0 -3.54,0.16 -5.23,0.16 -0.25,0 -0.91,0 -0.91,-0.95 0,-0.6 0.46,-0.6 1.25,-0.6 2.5,0 2.55,-0.45 2.64,-1.84 l 2.25,-30.44 c 0.05,-0.9 0.1,-1.29 0.8,-1.29 0.6,0 0.74,0.29 1.19,1.04 l 14.66,25.41 1.84,-25.16 c 0.09,-1.04 0.19,-1.29 0.8,-1.29 0.64,0 0.93,0.5 1.18,0.93 z"
         inkscape:connector-curvature="0"
         style="fill:#000000;stroke-width:0" /></g>  </g>
  <text
     transform="matrix(0,-1,1,0,0,0)"
     sodipodi:linespacing="125%"
     id="text3752"
     y="99.367752"
     x="-140.81068"
     style="font-size:11.05300045px;font-style:normal;font-variant:normal;font-weight:normal;font-stretch:normal;text-align:start;line-height:125%;letter-spacing:0px;word-spacing:0px;writing-mode:lr-tb;text-anchor:start;fill:#000000;fill-opacity:1;stroke:none;font-family:Sans;-inkscape-font-specification:Sans"
     xml:space="preserve"><tspan
       y="99.367752"
       x="-140.81068"
       id="tspan3754"
       sodipodi:role="line">Compressor</tspan></text>
  <g
     transform="matrix(0.33157543,0,0,0.33157543,42.913444,-96.325724)"
     id="g3266">
    <g
       style="font-style:normal;font-variant:normal;font-weight:normal;font-stretch:normal;letter-spacing:normal;word-spacing:normal;text-anchor:start;fill:none;stroke:#000000;stroke-linecap:butt;stroke-linejoin:miter;stroke-miterlimit:10.43299961;stroke-opacity:1;stroke-dasharray:none;stroke-dashoffset:0"
       id="g3268"
       transform="matrix(1.0629921,0,0,-1.0629921,-186.02362,789.27165)"
       xml:space="preserve"
       stroke-miterlimit="10.433"
       font-style="normal"
       font-variant="normal"
       font-weight="normal"
       font-stretch="normal"
       font-size-adjust="none"
       letter-spacing="normal"
       word-spacing="normal"><path
         style="fill:#000000;stroke-width:0"
         inkscape:connector-curvature="0"
         d="m 482,449.49 0,0.12 -0.01,0.13 -0.02,0.12 -0.02,0.13 -0.03,0.12 -0.03,0.12 -0.04,0.12 -0.05,0.12 -0.05,0.11 -0.06,0.12 -0.06,0.11 -0.07,0.1 -0.07,0.11 -0.08,0.1 -0.08,0.1 -0.08,0.09 -0.09,0.09 -0.1,0.09 -0.1,0.08 -0.1,0.08 -0.11,0.07 -0.11,0.07 -0.11,0.06 -0.12,0.06 -0.12,0.05 -0.13,0.04 -0.12,0.04 -0.13,0.03 -0.14,0.03 -0.13,0.01 -0.14,0.02 -0.14,0 c -1.68,0 -2.68,-1.39 -2.68,-2.64 0,-1.35 1.14,-2.64 2.64,-2.64 1.68,0 2.68,1.39 2.68,2.64 z"
         id="path3270" /><path
         style="fill:#000000;stroke-width:0"
         inkscape:connector-curvature="0"
         d="m 477.35,406.5 0.72,0.29 0.72,0.33 0.71,0.35 0.71,0.4 0.7,0.42 0.69,0.45 0.68,0.48 0.68,0.51 0.65,0.54 0.65,0.56 0.63,0.59 0.61,0.61 0.6,0.64 0.57,0.66 0.56,0.68 0.54,0.7 0.51,0.72 0.49,0.73 0.46,0.76 0.44,0.77 0.41,0.79 0.38,0.8 0.35,0.82 0.32,0.83 0.29,0.84 0.25,0.85 0.21,0.87 0.18,0.87 0.15,0.88 0.1,0.89 0.06,0.89 0.02,0.9 c 0,8.03 -5.28,13.4 -12.71,13.4 l -0.3,-1.25 c 4.98,0 8.62,-3.87 8.62,-10.56 0,-4.98 -2.54,-16.64 -10.9,-21.31 -0.25,1.73 -0.75,5.37 -4.39,5.37 v -1.09 c 2.09,0 3.04,-1.2 3.04,-4.23 0,-0.75 -0.06,-0.8 -0.56,-1 -1.28,-0.55 -2.78,-0.89 -4.17,-0.89 h 0 c -0.7,0 -2.3,0 -2.3,2.14 0,1.98 1.89,3.98 3.99,3.98 v 1.09 c -2.64,0 -5.08,-2.5 -5.08,-5.07 0,-1 0.3,-1.55 0.3,-1.6 h 0 c -3.89,1.53 -5.58,5.42 -5.58,9.91 0,3.44 1.29,10.51 5.08,15.89 3.64,5.09 8.32,7.37 11.95,7.37 l 0.3,1.25 c -10.75,0 -21.72,-11.31 -21.72,-22.92 0,-8.26 5.58,-13.29 12.76,-13.29 1.24,0 2.94,0.2 4.88,0.75 -0.21,-3.1 -0.21,-3.19 -0.21,-3.85 0,-1.59 0,-5.48 4.15,-5.48 5.92,0 8.31,9.12 8.31,9.67 0,0.34 -0.35,0.5 -0.55,0.5 -0.39,0 -0.5,-0.25 -0.59,-0.55 -1.19,-3.54 -4.08,-4.78 -5.83,-4.78 -2.3,0 -3.05,1.34 -3.53,5.13 z"
         id="path3272" /><path
         style="fill:#000000;stroke-width:0"
         inkscape:connector-curvature="0"
         d="m 524.18,419.73 0.03,0.12 0.03,0.11 0.02,0.11 0.03,0.1 0.03,0.1 0.03,0.09 0.03,0.08 0.04,0.08 0.03,0.08 0.04,0.07 0.04,0.07 0.05,0.06 0.05,0.06 0.06,0.05 0.06,0.05 0.07,0.05 0.07,0.04 0.08,0.04 0.09,0.03 0.1,0.03 0.1,0.03 0.06,0.01 0.06,0.01 0.06,0.02 0.06,0.01 0.07,0.01 0.07,0 0.07,0.01 0.07,0.01 0.08,0.01 0.08,0 0.08,0.01 0.09,0.01 0.09,0 0.09,0 0.1,0.01 0.09,0 0.11,0 0.1,0.01 0.11,0 0.11,0 0.12,0 0.12,0 c 0.76,0 1.18,0 1.18,0.76 0,0.14 -0.11,0.49 -0.56,0.49 -1.02,0 -3.55,-0.14 -4.56,-0.14 -0.6,0 -1.81,0 -2.41,0.03 -0.69,0.05 -1.53,0.11 -2.19,0.11 -0.21,0 -0.73,0 -0.73,-0.77 0,-0.48 0.42,-0.48 1.11,-0.48 0.03,0 0.7,0 1.33,-0.08 0.73,-0.06 0.79,-0.14 0.79,-0.48 0,-0.04 0,-0.24 -0.14,-0.77 l -2.04,-8.22 h -11.68 l 2.02,8.08 c 0.31,1.19 0.39,1.47 3.06,1.47 0.6,0 1.05,0 1.05,0.76 0,0.14 -0.11,0.49 -0.56,0.49 -1,0 -3.55,-0.14 -4.57,-0.14 -0.59,0 -1.81,0 -2.4,0.03 -0.69,0.05 -1.53,0.11 -2.19,0.11 -0.2,0 -0.73,0 -0.73,-0.77 0,-0.48 0.42,-0.48 1.12,-0.48 0.03,0 0.69,0 1.31,-0.08 0.74,-0.06 0.82,-0.14 0.82,-0.48 0,-0.07 0,-0.24 -0.14,-0.77 l -4.65,-18.5 c -0.28,-1.19 -0.34,-1.47 -3.06,-1.47 -0.59,0 -1.04,0 -1.04,-0.73 0,-0.35 0.23,-0.52 0.56,-0.52 1,0 3.51,0.14 4.51,0.14 0.6,0 1.82,0 2.41,-0.03 0.7,-0.05 1.58,-0.11 2.23,-0.11 0.18,0 0.74,0 0.74,0.74 0,0.51 -0.35,0.51 -1.16,0.51 -0.54,0 -0.69,0 -1.31,0.08 -0.78,0.09 -0.78,0.17 -0.78,0.52 0,0.03 0,0.25 0.14,0.76 l 2.31,9.14 h 11.67 l -2.26,-9.03 c -0.28,-1.19 -0.36,-1.47 -3.08,-1.47 -0.58,0 -1.03,0 -1.03,-0.73 0,-0.35 0.23,-0.52 0.54,-0.52 1.02,0 3.52,0.14 4.54,0.14 0.59,0 1.81,0 2.4,-0.03 0.71,-0.05 1.56,-0.11 2.24,-0.11 0.17,0 0.73,0 0.73,0.74 0,0.51 -0.36,0.51 -1.16,0.51 -0.56,0 -0.7,0 -1.32,0.08 -0.77,0.09 -0.77,0.17 -0.77,0.52 0,0.21 0.11,0.56 0.14,0.76 z"
         id="path3274" /></g>  </g>
  <text
     sodipodi:linespacing="125%"
     id="text3748"
     y="90.067101"
     x="138.26944"
     style="font-size:11.05300045px;font-style:normal;font-variant:normal;font-weight:normal;font-stretch:normal;text-align:start;line-height:125%;letter-spacing:0px;word-spacing:0px;writing-mode:lr-tb;text-anchor:start;fill:#000000;fill-opacity:1;stroke:none;font-family:Sans;-inkscape-font-specification:Sans"
     xml:space="preserve"><tspan
       y="90.067101"
       x="138.26944"
       id="tspan3750"
       sodipodi:role="line">Cooler</tspan></text>
  <text
     sodipodi:linespacing="125%"
     id="text3744"
     y="36.378914"
     x="250.55641"
     style="font-size:11.05300045px;font-style:normal;font-variant:normal;font-weight:normal;font-stretch:normal;text-align:start;line-height:125%;letter-spacing:0px;word-spacing:0px;writing-mode:lr-tb;text-anchor:start;fill:#000000;fill-opacity:1;stroke:none;font-family:Sans;-inkscape-font-specification:Sans"
     xml:space="preserve"><tspan
       y="36.378914"
       x="250.55641"
       id="tspan3746"
       sodipodi:role="line">Recuperator</tspan></text>
  <text
     sodipodi:linespacing="125%"
     id="text3736"
     y="109.86877"
     x="375.19818"
     style="font-size:11.05300045px;font-style:normal;font-variant:normal;font-weight:normal;font-stretch:normal;text-align:start;line-height:125%;letter-spacing:0px;word-spacing:0px;writing-mode:lr-tb;text-anchor:start;fill:#000000;fill-opacity:1;stroke:none;font-family:Sans;-inkscape-font-specification:Sans"
     xml:space="preserve"><tspan
       y="109.86877"
       x="375.19818"
       id="tspan3738"
       sodipodi:role="line">Joule-</tspan><tspan
       id="tspan3740"
       y="123.68503"
       x="375.19818"
       sodipodi:role="line">Thomson</tspan><tspan
       id="tspan3742"
       y="137.50128"
       x="375.19818"
       sodipodi:role="line">valve</tspan></text>
  <text
     xml:space="preserve"
     style="font-size:11.05300045px;font-style:normal;font-variant:normal;font-weight:bold;font-stretch:normal;text-align:start;line-height:125%;letter-spacing:0px;word-spacing:0px;writing-mode:lr-tb;text-anchor:start;fill:#000000;fill-opacity:1;stroke:none;font-family:Sans;-inkscape-font-specification:Sans Bold"
     x="50.546638"
     y="191.4872"
     id="text3498"
     sodipodi:linespacing="125%"><tspan
       sodipodi:role="line"
       id="tspan3500"
       x="50.546638"
       y="191.4872">1</tspan></text>
  <text
     xml:space="preserve"
     style="font-size:11.05300045px;font-style:normal;font-variant:normal;font-weight:bold;font-stretch:normal;text-align:start;line-height:125%;letter-spacing:0px;word-spacing:0px;writing-mode:lr-tb;text-anchor:start;fill:#000000;fill-opacity:1;stroke:none;font-family:Sans;-inkscape-font-specification:Sans Bold"
     x="51.109486"
     y="145.71906"
     id="text3498-2"
     sodipodi:linespacing="125%"><tspan
       sodipodi:role="line"
       id="tspan3500-8"
       x="51.109486"
       y="145.71906">2</tspan></text>
  <text
     xml:space="preserve"
     style="font-size:11.05300045px;font-style:normal;font-variant:normal;font-weight:bold;font-stretch:normal;text-align:start;line-height:125%;letter-spacing:0px;word-spacing:0px;writing-mode:lr-tb;text-anchor:start;fill:#000000;fill-opacity:1;stroke:none;font-family:Sans;-inkscape-font-specification:Sans Bold"
     x="74.671577"
     y="53.362514"
     id="text3506"
     sodipodi:linespacing="125%"><tspan
       sodipodi:role="line"
       id="tspan3508"
       x="74.671577"
       y="53.362514">3</tspan></text>
  <text
     xml:space="preserve"
     style="font-size:11.05300045px;font-style:normal;font-variant:normal;font-weight:bold;font-stretch:normal;text-align:start;line-height:125%;letter-spacing:0px;word-spacing:0px;writing-mode:lr-tb;text-anchor:start;fill:#000000;fill-opacity:1;stroke:none;font-family:Sans;-inkscape-font-specification:Sans Bold"
     x="212.75964"
     y="52.904884"
     id="text3510"
     sodipodi:linespacing="125%"><tspan
       sodipodi:role="line"
       id="tspan3512"
       x="212.75964"
       y="52.904884">4</tspan></text>
  <text
     xml:space="preserve"
     style="font-size:11.05300045px;font-style:normal;font-variant:normal;font-weight:bold;font-stretch:normal;text-align:start;line-height:125%;letter-spacing:0px;word-spacing:0px;writing-mode:lr-tb;text-anchor:start;fill:#000000;fill-opacity:1;stroke:none;font-family:Sans;-inkscape-font-specification:Sans Bold"
     x="344.44522"
     y="52.219978"
     id="text3514"
     sodipodi:linespacing="125%"><tspan
       sodipodi:role="line"
       id="tspan3516"
       x="344.44522"
       y="52.219978">5</tspan></text>
  <text
     xml:space="preserve"
     style="font-size:11.05300045px;font-style:normal;font-variant:normal;font-weight:bold;font-stretch:normal;text-align:start;line-height:125%;letter-spacing:0px;word-spacing:0px;writing-mode:lr-tb;text-anchor:start;fill:#000000;fill-opacity:1;stroke:none;font-family:Sans;-inkscape-font-specification:Sans Bold"
     x="368.72266"
     y="162.51358"
     id="text3518"
     sodipodi:linespacing="125%"><tspan
       sodipodi:role="line"
       id="tspan3520"
       x="368.72266"
       y="162.51358">6</tspan></text>
  <text
     xml:space="preserve"
     style="font-size:11.05300045px;font-style:normal;font-variant:normal;font-weight:bold;font-stretch:normal;text-align:start;line-height:125%;letter-spacing:0px;word-spacing:0px;writing-mode:lr-tb;text-anchor:start;fill:#000000;fill-opacity:1;stroke:none;font-family:Sans;-inkscape-font-specification:Sans Bold"
     x="327.17114"
     y="162.74907"
     id="text3522"
     sodipodi:linespacing="125%"><tspan
       sodipodi:role="line"
       id="tspan3524"
       x="327.17114"
       y="162.74907">7</tspan></text>
  <text
     xml:space="preserve"
     style="font-size:11.05300045px;font-style:normal;font-variant:normal;font-weight:bold;font-stretch:normal;text-align:start;line-height:125%;letter-spacing:0px;word-spacing:0px;writing-mode:lr-tb;text-anchor:start;fill:#000000;fill-opacity:1;stroke:none;font-family:Sans;-inkscape-font-specification:Sans Bold"
     x="209.38583"
     y="95.515038"
     id="text3522-3"
     sodipodi:linespacing="125%"><tspan
       sodipodi:role="line"
       id="tspan3524-9"
       x="209.38583"
       y="95.515038">9</tspan></text>
  <text
     xml:space="preserve"
     style="font-size:11.05300045px;font-style:normal;font-variant:normal;font-weight:bold;font-stretch:normal;text-align:start;line-height:125%;letter-spacing:0px;word-spacing:0px;writing-mode:lr-tb;text-anchor:start;fill:#000000;fill-opacity:1;stroke:none;font-family:Sans;-inkscape-font-specification:Sans Bold"
     x="328.64423"
     y="96.745506"
     id="text3522-3-0"
     sodipodi:linespacing="125%"><tspan
       sodipodi:role="line"
       id="tspan3524-9-6"
       x="328.64423"
       y="96.745506">8</tspan></text>
  <text
     xml:space="preserve"
     style="font-size:11.05300045px;font-style:normal;font-variant:normal;font-weight:normal;font-stretch:normal;text-align:start;line-height:125%;letter-spacing:0px;word-spacing:0px;writing-mode:lr-tb;text-anchor:start;fill:#000000;fill-opacity:1;stroke:none;font-family:Sans;-inkscape-font-specification:Sans"
     x="231.42239"
     y="231.28566"
     id="text4456"
     sodipodi:linespacing="125%"><tspan
       sodipodi:role="line"
       id="tspan4458"
       x="231.42239"
       y="231.28566">Liquid out</tspan></text>
  <text
     xml:space="preserve"
     style="font-size:11.05300045px;font-style:normal;font-variant:normal;font-weight:bold;font-stretch:normal;text-align:start;line-height:125%;letter-spacing:0px;word-spacing:0px;writing-mode:lr-tb;text-anchor:start;fill:#000000;fill-opacity:1;stroke:none;font-family:Sans;-inkscape-font-specification:Sans Bold"
     x="297.02811"
     y="216.76842"
     id="text3522-3-5"
     sodipodi:linespacing="125%"><tspan
       sodipodi:role="line"
       id="tspan3524-9-9"
       x="297.02811"
       y="216.76842">10</tspan></text>
</svg>
