999
dxfrw 0.5.10
0
SECTION
2
HEADER
9
$ACADVER
1
AC1021
9
$HANDSEED
5
20000
9
$DWGCODEPAGE
3
ANSI_1252
9
$INSBASE
10
0
20
0
30
0
9
$EXTMIN
10
40
20
80
30
0
9
$EXTMAX
10
180
20
120
30
0
9
$LIMMIN
10
0
20
0
9
$LIMMAX
10
420
20
297
9
$ORTHOMODE
70
0
9
$LTSCALE
40
1
9
$TEXTSTYLE
7
STANDARD
9
$CLAYER
8
0
9
$DIMASZ
40
2.5
9
$DIMLFAC
40
1
9
$DIMSCALE
40
1
9
$DIMEXO
40
0.625
9
$DIMEXE
40
1.25
9
$DIMTXT
40
2.5
9
$DIMTSZ
40
0
9
$DIMAUNIT
70
0
9
$DIMADEC
70
0
9
$DIMLUNIT
70
2
9
$DIMSTYLE
2
STANDARD
9
$DIMGAP
40
0.625
9
$DIMTIH
70
0
9
$LUNITS
70
2
9
$LUPREC
70
4
9
$AUNITS
70
0
9
$AUPREC
70
2
9
$SPLINESEGS
70
8
9
$SNAPSTYLE
70
0
9
$PINSBASE
10
-40.3571428571
20
16.3571428571
30
0
9
$PLIMMIN
10
0
20
0
9
$PLIMMAX
10
210
20
297
9
$INSUNITS
70
4
9
$PSVPSCALE
40
1.32142857143
0
ENDSEC
0
SECTION
2
CLASSES
0
ENDSEC
0
SECTION
2
TABLES
0
TABLE
2
VPORT
5
8
330
0
100
AcDbSymbolTable
70
1
0
VPORT
5
31
330
2
100
AcDbSymbolTableRecord
100
AcDbViewportTableRecord
2
*ACTIVE
70
0
10
0
20
0
11
1
21
1
12
384.216308594
22
166.015625
13
0
23
0
14
10
24
10
15
10
25
10
16
0
26
0
36
1
17
0
27
0
37
0
40
463.8671875
41
2.05131578947
42
50
43
0
44
0
50
0
51
0
71
0
72
100
73
1
74
3
75
0
76
1
77
0
78
0
281
0
65
1
110
0
120
0
130
0
111
1
121
0
131
0
112
0
122
1
132
0
79
0
146
0
348
10020
60
7
61
5
292
1
282
1
141
0
142
0
63
250
421
3358443
0
ENDTAB
0
TABLE
2
LTYPE
5
5
330
0
100
AcDbSymbolTable
70
4
0
LTYPE
5
14
330
5
100
AcDbSymbolTableRecord
100
AcDbLinetypeTableRecord
2
ByBlock
70
0
3

72
65
73
0
40
0
0
LTYPE
5
15
330
5
100
AcDbSymbolTableRecord
100
AcDbLinetypeTableRecord
2
ByLayer
70
0
3

72
65
73
0
40
0
0
LTYPE
5
16
330
5
100
AcDbSymbolTableRecord
100
AcDbLinetypeTableRecord
2
Continuous
70
0
3
Solid line
72
65
73
0
40
0
0
LTYPE
5
32
330
5
100
AcDbSymbolTableRecord
100
AcDbLinetypeTableRecord
2
DOT
70
0
3
Dot . . . . . . . . . . . . . . . . . . . . . .
72
65
73
2
40
6.35
49
0
74
0
49
-6.35
74
0
0
LTYPE
5
33
330
5
100
AcDbSymbolTableRecord
100
AcDbLinetypeTableRecord
2
DOT2
70
0
3
Dot (.5x) .....................................
72
65
73
2
40
3.175
49
0
74
0
49
-3.175
74
0
0
LTYPE
5
34
330
5
100
AcDbSymbolTableRecord
100
AcDbLinetypeTableRecord
2
DOTX2
70
0
3
Dot (2x) .  .  .  .  .  .  .  .  .  .  .  .  .
72
65
73
2
40
12.7
49
0
74
0
49
-12.7
74
0
0
LTYPE
5
35
330
5
100
AcDbSymbolTableRecord
100
AcDbLinetypeTableRecord
2
DASHED
70
0
3
Dot . . . . . . . . . . . . . . . . . . . . . .
72
65
73
2
40
19.05
49
12.7
74
0
49
-6.35
74
0
0
LTYPE
5
36
330
5
100
AcDbSymbolTableRecord
100
AcDbLinetypeTableRecord
2
DASHED2
70
0
3
Dashed (.5x) _ _ _ _ _ _ _ _ _ _ _ _ _ _ _ _ _
72
65
73
2
40
9.525
49
6.35
74
0
49
-3.175
74
0
0
LTYPE
5
37
330
5
100
AcDbSymbolTableRecord
100
AcDbLinetypeTableRecord
2
DASHEDX2
70
0
3
Dashed (2x) ____  ____  ____  ____  ____  ___
72
65
73
2
40
38.1
49
25.4
74
0
49
-12.7
74
0
0
LTYPE
5
38
330
5
100
AcDbSymbolTableRecord
100
AcDbLinetypeTableRecord
2
DASHDOT
70
0
3
Dash dot __ . __ . __ . __ . __ . __ . __ . __
72
65
73
4
40
25.4
49
12.7
74
0
49
-6.35
74
0
49
0
74
0
49
-6.35
74
0
0
LTYPE
5
39
330
5
100
AcDbSymbolTableRecord
100
AcDbLinetypeTableRecord
2
DASHDOT2
70
0
3
Dash dot (.5x) _._._._._._._._._._._._._._._.
72
65
73
4
40
12.7
49
6.35
74
0
49
-3.175
74
0
49
0
74
0
49
-3.175
74
0
0
LTYPE
5
3A
330
5
100
AcDbSymbolTableRecord
100
AcDbLinetypeTableRecord
2
DASHDOTX2
70
0
3
Dash dot (2x) ____  .  ____  .  ____  .  ___
72
65
73
4
40
50.8
49
25.4
74
0
49
-12.7
74
0
49
0
74
0
49
-12.7
74
0
0
LTYPE
5
3B
330
5
100
AcDbSymbolTableRecord
100
AcDbLinetypeTableRecord
2
DIVIDE
70
0
3
Divide ____ . . ____ . . ____ . . ____ . . ____
72
65
73
6
40
31.75
49
12.7
74
0
49
-6.35
74
0
49
0
74
0
49
-6.35
74
0
49
0
74
0
49
-6.35
74
0
0
LTYPE
5
3C
330
5
100
AcDbSymbolTableRecord
100
AcDbLinetypeTableRecord
2
DIVIDE2
70
0
3
Divide (.5x) __..__..__..__..__..__..__..__.._
72
65
73
6
40
15.875
49
6.35
74
0
49
-3.175
74
0
49
0
74
0
49
-3.175
74
0
49
0
74
0
49
-3.175
74
0
0
LTYPE
5
3D
330
5
100
AcDbSymbolTableRecord
100
AcDbLinetypeTableRecord
2
DIVIDEX2
70
0
3
Divide (2x) ________  .  .  ________  .  .  _
72
65
73
6
40
63.5
49
25.4
74
0
49
-12.7
74
0
49
0
74
0
49
-12.7
74
0
49
0
74
0
49
-12.7
74
0
0
LTYPE
5
3E
330
5
100
AcDbSymbolTableRecord
100
AcDbLinetypeTableRecord
2
BORDER
70
0
3
Border __ __ . __ __ . __ __ . __ __ . __ __ .
72
65
73
6
40
44.45
49
12.7
74
0
49
-6.35
74
0
49
12.7
74
0
49
-6.35
74
0
49
0
74
0
49
-6.35
74
0
0
LTYPE
5
3F
330
5
100
AcDbSymbolTableRecord
100
AcDbLinetypeTableRecord
2
BORDER2
70
0
3
Border (.5x) __.__.__.__.__.__.__.__.__.__.__.
72
65
73
6
40
22.225
49
6.35
74
0
49
-3.175
74
0
49
6.35
74
0
49
-3.175
74
0
49
0
74
0
49
-3.175
74
0
0
LTYPE
5
40
330
5
100
AcDbSymbolTableRecord
100
AcDbLinetypeTableRecord
2
BORDERX2
70
0
3
Border (2x) ____  ____  .  ____  ____  .  ___
72
65
73
6
40
88.9
49
25.4
74
0
49
-12.7
74
0
49
25.4
74
0
49
-12.7
74
0
49
0
74
0
49
-12.7
74
0
0
LTYPE
5
41
330
5
100
AcDbSymbolTableRecord
100
AcDbLinetypeTableRecord
2
CENTER
70
0
3
Center ____ _ ____ _ ____ _ ____ _ ____ _ ____
72
65
73
4
40
50.8
49
31.75
74
0
49
-6.35
74
0
49
6.35
74
0
49
-6.35
74
0
0
LTYPE
5
42
330
5
100
AcDbSymbolTableRecord
100
AcDbLinetypeTableRecord
2
CENTER2
70
0
3
Center (.5x) ___ _ ___ _ ___ _ ___ _ ___ _ ___
72
65
73
4
40
28.575
49
19.05
74
0
49
-3.175
74
0
49
3.175
74
0
49
-3.175
74
0
0
LTYPE
5
43
330
5
100
AcDbSymbolTableRecord
100
AcDbLinetypeTableRecord
2
CENTERX2
70
0
3
Center (2x) ________  __  ________  __  _____
72
65
73
4
40
101.6
49
63.5
74
0
49
-12.7
74
0
49
12.7
74
0
49
-12.7
74
0
0
ENDTAB
0
TABLE
2
LAYER
5
2
330
0
100
AcDbSymbolTable
70
1
0
LAYER
5
10
330
2
100
AcDbSymbolTableRecord
100
AcDbLayerTableRecord
2
0
70
0
62
7
6
CONTINUOUS
370
0
390
F
0
ENDTAB
0
TABLE
2
STYLE
5
3
330
0
100
AcDbSymbolTable
70
3
0
STYLE
5
44
330
2
100
AcDbSymbolTableRecord
100
AcDbTextStyleTableRecord
2
Standard
70
0
40
0
41
1
50
0
71
0
42
1
3
txt
4

0
ENDTAB
0
TABLE
2
VIEW
5
6
330
0
100
AcDbSymbolTable
70
0
0
ENDTAB
0
TABLE
2
UCS
5
7
330
0
100
AcDbSymbolTable
70
0
0
ENDTAB
0
TABLE
2
APPID
5
9
330
0
100
AcDbSymbolTable
70
1
0
APPID
5
12
330
9
100
AcDbSymbolTableRecord
100
AcDbRegAppTableRecord
2
ACAD
70
0
0
ENDTAB
0
TABLE
2
DIMSTYLE
5
A
330
0
100
AcDbSymbolTable
70
1
100
AcDbDimStyleTable
71
1
0
DIMSTYLE
105
45
330
A
100
AcDbSymbolTableRecord
100
AcDbDimStyleTableRecord
2
Standard
70
0
40
1
41
2.5
42
0.625
43
0.38
44
1.25
45
0
46
0
47
0
48
0
140
2.5
141
0.09
142
0
143
25.4
144
1
145
0
146
1
147
0.625
148
0
71
0
72
0
73
0
74
1
75
0
76
0
77
0
78
0
79
0
170
0
171
2
172
0
173
0
174
0
175
0
176
0
177
0
178
0
179
0
271
4
272
4
273
2
274
2
275
0
276
0
277
2
278
46
279
0
280
0
281
0
282
0
283
1
284
0
285
0
286
0
288
0
289
3
340
Standard
341

371
-2
372
-2
0
ENDTAB
0
TABLE
2
BLOCK_RECORD
5
1
330
0
100
AcDbSymbolTable
70
2
0
BLOCK_RECORD
5
1F
330
1
100
AcDbSymbolTableRecord
100
AcDbBlockTableRecord
2
*Model_Space
70
0
280
1
281
0
0
BLOCK_RECORD
5
1E
330
1
100
AcDbSymbolTableRecord
100
AcDbBlockTableRecord
2
*Paper_Space
70
0
280
1
281
0
0
ENDTAB
0
ENDSEC
0
SECTION
2
BLOCKS
0
BLOCK
5
20
330
1F
100
AcDbEntity
8
0
100
AcDbBlockBegin
2
*Model_Space
70
0
10
0
20
0
30
0
3
*Model_Space
1

0
ENDBLK
5
21
330
1F
100
AcDbEntity
8
0
100
AcDbBlockEnd
0
BLOCK
5
1C
330
1B
100
AcDbEntity
8
0
100
AcDbBlockBegin
2
*Paper_Space
70
0
10
0
20
0
30
0
3
*Paper_Space
1

0
ENDBLK
5
1D
330
1F
100
AcDbEntity
8
0
100
AcDbBlockEnd
0
ENDSEC
0
SECTION
2
ENTITIES
0
HATCH
5
46
100
AcDbEntity
8
0
6
ByLayer
62
256
370
-1
100
AcDbHatch
10
0
20
0
30
0
210
0
220
0
230
1
2
SOLID
70
1
71
0
91
1
92
0
93
8
72
1
10
40
20
70
11
50
21
70
72
2
10
85
20
75
40
35.3553390593
50
188.130102354
51
261.869897646
73
1
72
1
10
80
20
40
11
180
21
40
72
1
10
180
20
40
11
180
21
38
72
1
10
180
20
38
11
79.8598291626
21
38
72
2
10
85
20
75
40
37.3553390593
50
97.9091102664
51
169.199519912
73
0
72
1
10
48.3063853479
20
68
11
40
21
68
72
1
10
40
20
68
11
40
21
70
97
0
75
0
76
1
98
0
0
HATCH
5
47
100
AcDbEntity
8
0
6
ByLayer
62
256
370
-1
100
AcDbHatch
10
0
20
0
30
0
210
0
220
0
230
1
2
SOLID
70
1
71
0
91
1
92
0
93
8
72
1
10
320
20
70
11
310
21
70
72
2
10
275
20
75
40
35.3553390593
50
8.13010235416
51
81.8698976458
73
0
72
1
10
280
20
40
11
180
21
40
72
1
10
180
20
40
11
180
21
38
72
1
10
180
20
38
11
280.140170837
21
38
72
2
10
275
20
75
40
37.3553390593
50
277.909110266
51
349.199519912
73
1
72
1
10
311.693614652
20
68
11
320
21
68
72
1
10
320
20
68
11
320
21
70
97
0
75
0
76
1
98
0
0
HATCH
5
48
100
AcDbEntity
8
0
6
ByLayer
62
256
370
-1
100
AcDbHatch
10
0
20
0
30
0
210
0
220
0
230
1
2
SOLID
70
1
71
0
91
1
92
0
93
8
72
1
10
320
20
80
11
310
21
80
72
2
10
275
20
75
40
35.3553390593
50
8.13010235416
51
81.8698976458
73
1
72
1
10
280
20
110
11
180
21
110
72
1
10
180
20
110
11
180
21
112
72
1
10
180
20
112
11
280.140170837
21
112
72
2
10
275
20
75
40
37.3553390593
50
277.909110266
51
349.199519912
73
0
72
1
10
311.693614652
20
82
11
320
21
82
72
1
10
320
20
82
11
320
21
80
97
0
75
0
76
1
98
0
0
HATCH
5
49
100
AcDbEntity
8
0
6
ByLayer
62
256
370
-1
100
AcDbHatch
10
0
20
0
30
0
210
0
220
0
230
1
2
SOLID
70
1
71
0
91
1
92
0
93
8
72
1
10
40
20
80
11
50
21
80
72
2
10
85
20
75
40
35.3553390593
50
188.130102354
51
261.869897646
73
0
72
1
10
80
20
110
11
180
21
110
72
1
10
180
20
110
11
180
21
112
72
1
10
180
20
112
11
79.8598291626
21
112
72
2
10
85
20
75
40
37.3553390593
50
97.9091102664
51
169.199519912
73
1
72
1
10
48.3063853479
20
82
11
40
21
82
72
1
10
40
20
82
11
40
21
80
97
0
75
0
76
1
98
0
0
LWPOLYLINE
5
4A
100
AcDbEntity
8
0
6
ByLayer
62
256
370
-1
100
AcDbPolyline
90
4
70
0
43
0
10
40
20
80
10
50
20
80
42
-0.333333333333
10
80
20
110
10
180
20
110
0
LWPOLYLINE
5
4B
100
AcDbEntity
8
0
6
ByLayer
62
256
370
-1
100
AcDbPolyline
90
4
70
0
43
0
10
40
20
87
10
44.380118823
20
87
42
-0.296758352613
10
79.5250801987
20
117
10
180
20
117
0
LWPOLYLINE
5
4C
100
AcDbEntity
8
0
6
ByLayer
62
256
370
-1
100
AcDbPolyline
90
4
70
0
43
0
10
40
20
82
10
48.3063853479
20
82
42
-0.321500081881
10
79.8598291626
20
112
10
180
20
112
0
LINE
5
4D
100
AcDbEntity
8
0
6
ByLayer
62
256
370
-1
100
AcDbLine
10
40
20
87
11
40
21
82
0
LINE
5
4E
100
AcDbEntity
8
0
6
ByLayer
62
256
370
-1
100
AcDbLine
10
40
20
82
11
40
21
80
0
LINE
5
4F
100
AcDbEntity
8
0
6
ByLayer
62
256
370
-1
100
AcDbLine
10
180
20
117
11
180
21
112
0
LINE
5
50
100
AcDbEntity
8
0
6
ByLayer
62
256
370
-1
100
AcDbLine
10
180
20
112
11
180
21
110
0
LINE
5
51
100
AcDbEntity
8
0
6
ByLayer
62
256
370
-1
100
AcDbLine
10
40
20
87
11
44.380118823
21
87
0
ARC
5
52
100
AcDbEntity
8
0
6
ByLayer
62
256
370
-1
100
AcDbCircle
10
85
20
75
40
42.3553390593
100
AcDbArc
50
97.4269263358
51
163.541708692
0
LINE
5
53
100
AcDbEntity
8
0
6
ByLayer
62
256
370
-1
100
AcDbLine
10
79.5250801987
20
117
11
180
21
117
0
LINE
5
54
100
AcDbEntity
8
0
6
ByLayer
62
256
370
-1
100
AcDbLine
10
180
20
117
11
180
21
112
0
LINE
5
55
100
AcDbEntity
8
0
6
ByLayer
62
256
370
-1
100
AcDbLine
10
180
20
112
11
79.8598291626
21
112
0
ARC
5
56
100
AcDbEntity
8
0
6
ByLayer
62
256
370
-1
100
AcDbCircle
10
85
20
75
40
37.3553390593
100
AcDbArc
50
97.9091102664
51
169.199519912
0
LINE
5
57
100
AcDbEntity
8
0
6
ByLayer
62
256
370
-1
100
AcDbLine
10
48.3063853479
20
82
11
40
21
82
0
LINE
5
58
100
AcDbEntity
8
0
6
ByLayer
62
256
370
-1
100
AcDbLine
10
40
20
82
11
40
21
87
0
LINE
5
59
100
AcDbEntity
8
0
6
ByLayer
62
256
370
-1
100
AcDbLine
10
44
20
82
11
40
21
86
0
LINE
5
5A
100
AcDbEntity
8
0
6
ByLayer
62
256
370
-1
100
AcDbLine
10
48.6011009619
20
83.3988990381
11
44.5238338611
21
87.4761661389
0
LINE
5
5B
100
AcDbEntity
8
0
6
ByLayer
62
256
370
-1
100
AcDbLine
10
49.98519877
20
88.01480123
11
48
21
90
0
LINE
5
5C
100
AcDbEntity
8
0
6
ByLayer
62
256
370
-1
100
AcDbLine
10
158
20
112
11
153
21
117
0
LINE
5
5D
100
AcDbEntity
8
0
6
ByLayer
62
256
370
-1
100
AcDbLine
10
164
20
112
11
159
21
117
0
LINE
5
5E
100
AcDbEntity
8
0
6
ByLayer
62
256
370
-1
100
AcDbLine
10
170
20
112
11
165
21
117
0
LINE
5
5F
100
AcDbEntity
8
0
6
ByLayer
62
256
370
-1
100
AcDbLine
10
176
20
112
11
171
21
117
0
LINE
5
60
100
AcDbEntity
8
0
6
ByLayer
62
256
370
-1
100
AcDbLine
10
180
20
114
11
177
21
117
0
LINE
5
61
100
AcDbEntity
8
0
6
ByLayer
62
256
370
-1
100
AcDbLine
10
152
20
112
11
150
21
114
0
LINE
5
62
100
AcDbEntity
8
0
6
ByLayer
62
256
370
-1
100
AcDbLine
10
128
20
112
11
123
21
117
0
LINE
5
63
100
AcDbEntity
8
0
6
ByLayer
62
256
370
-1
100
AcDbLine
10
134
20
112
11
129
21
117
0
LINE
5
64
100
AcDbEntity
8
0
6
ByLayer
62
256
370
-1
100
AcDbLine
10
140
20
112
11
135
21
117
0
LINE
5
65
100
AcDbEntity
8
0
6
ByLayer
62
256
370
-1
100
AcDbLine
10
146
20
112
11
141
21
117
0
LINE
5
66
100
AcDbEntity
8
0
6
ByLayer
62
256
370
-1
100
AcDbLine
10
150
20
114
11
147
21
117
0
LINE
5
67
100
AcDbEntity
8
0
6
ByLayer
62
256
370
-1
100
AcDbLine
10
122
20
112
11
120
21
114
0
LINE
5
68
100
AcDbEntity
8
0
6
ByLayer
62
256
370
-1
100
AcDbLine
10
98
20
112
11
93
21
117
0
LINE
5
69
100
AcDbEntity
8
0
6
ByLayer
62
256
370
-1
100
AcDbLine
10
104
20
112
11
99
21
117
0
LINE
5
6A
100
AcDbEntity
8
0
6
ByLayer
62
256
370
-1
100
AcDbLine
10
110
20
112
11
105
21
117
0
LINE
5
6B
100
AcDbEntity
8
0
6
ByLayer
62
256
370
-1
100
AcDbLine
10
116
20
112
11
111
21
117
0
LINE
5
6C
100
AcDbEntity
8
0
6
ByLayer
62
256
370
-1
100
AcDbLine
10
120
20
114
11
117
21
117
0
LINE
5
6D
100
AcDbEntity
8
0
6
ByLayer
62
256
370
-1
100
AcDbLine
10
92
20
112
11
90
21
114
0
LINE
5
6E
100
AcDbEntity
8
0
6
ByLayer
62
256
370
-1
100
AcDbLine
10
70.5518778202
20
109.44812218
11
66.7690352022
21
113.230964798
0
LINE
5
6F
100
AcDbEntity
8
0
6
ByLayer
62
256
370
-1
100
AcDbLine
10
75.0062904663
20
110.993709534
11
71.0187588607
21
114.981241139
0
LINE
5
70
100
AcDbEntity
8
0
6
ByLayer
62
256
370
-1
100
AcDbLine
10
80
20
112
11
75.6822715589
21
116.317728441
0
LINE
5
71
100
AcDbEntity
8
0
6
ByLayer
62
256
370
-1
100
AcDbLine
10
86
20
112
11
81
21
117
0
LINE
5
72
100
AcDbEntity
8
0
6
ByLayer
62
256
370
-1
100
AcDbLine
10
90
20
114
11
87
21
117
0
LINE
5
73
100
AcDbEntity
8
0
6
ByLayer
62
256
370
-1
100
AcDbLine
10
66.5302006659
20
107.469799334
11
62.879777243
21
111.120222757
0
LINE
5
74
100
AcDbEntity
8
0
6
ByLayer
62
256
370
-1
100
AcDbLine
10
62.8904102269
20
105.109589773
11
60
21
108
0
LINE
5
75
100
AcDbEntity
8
0
6
ByLayer
62
256
370
-1
100
AcDbLine
10
54.0633333268
20
95.9366666732
11
50.4705676754
21
99.5294323246
0
LINE
5
76
100
AcDbEntity
8
0
6
ByLayer
62
256
370
-1
100
AcDbLine
10
56.661612082
20
99.338387918
11
53.1171056721
21
102.882894328
0
LINE
5
77
100
AcDbEntity
8
0
6
ByLayer
62
256
370
-1
100
AcDbLine
10
59.6047224277
20
102.395277572
11
56.0669518188
21
105.933048181
0
LINE
5
78
100
AcDbEntity
8
0
6
ByLayer
62
256
370
-1
100
AcDbLine
10
60
20
108
11
59.3185685417
21
108.681431458
0
LINE
5
79
100
AcDbEntity
8
0
6
ByLayer
62
256
370
-1
100
AcDbLine
10
51.8263892515
20
92.1736107485
11
48.1384793641
21
95.8615206359
0
LINE
5
7A
100
AcDbEntity
8
0
6
ByLayer
62
256
370
-1
100
AcDbLine
10
48
20
90
11
46.1434500805
21
91.8565499195
0
LWPOLYLINE
5
7B
100
AcDbEntity
8
0
6
ByLayer
62
256
370
-1
100
AcDbPolyline
90
4
70
0
43
0
10
320
20
80
10
310
20
80
42
0.333333333333
10
280
20
110
10
180
20
110
0
LWPOLYLINE
5
7C
100
AcDbEntity
8
0
6
ByLayer
62
256
370
-1
100
AcDbPolyline
90
4
70
0
43
0
10
320
20
87
10
315.619881177
20
87
42
0.296758352613
10
280.474919801
20
117
10
180
20
117
0
LWPOLYLINE
5
7D
100
AcDbEntity
8
0
6
ByLayer
62
256
370
-1
100
AcDbPolyline
90
4
70
0
43
0
10
320
20
82
10
311.693614652
20
82
42
0.321500081881
10
280.140170837
20
112
10
180
20
112
0
LINE
5
7E
100
AcDbEntity
8
0
6
ByLayer
62
256
370
-1
100
AcDbLine
10
320
20
87
11
320
21
82
0
LINE
5
7F
100
AcDbEntity
8
0
6
ByLayer
62
256
370
-1
100
AcDbLine
10
320
20
82
11
320
21
80
0
LINE
5
80
100
AcDbEntity
8
0
6
ByLayer
62
256
370
-1
100
AcDbLine
10
180
20
117
11
180
21
112
0
LINE
5
81
100
AcDbEntity
8
0
6
ByLayer
62
256
370
-1
100
AcDbLine
10
180
20
112
11
180
21
110
0
LINE
5
82
100
AcDbEntity
8
0
6
ByLayer
62
256
370
-1
100
AcDbLine
10
316
20
82
11
320
21
86
0
LINE
5
83
100
AcDbEntity
8
0
6
ByLayer
62
256
370
-1
100
AcDbLine
10
311.398899038
20
83.3988990381
11
315.476166139
21
87.4761661389
0
LINE
5
84
100
AcDbEntity
8
0
6
ByLayer
62
256
370
-1
100
AcDbLine
10
310.01480123
20
88.01480123
11
312
21
90
0
LINE
5
85
100
AcDbEntity
8
0
6
ByLayer
62
256
370
-1
100
AcDbLine
10
202
20
112
11
207
21
117
0
LINE
5
86
100
AcDbEntity
8
0
6
ByLayer
62
256
370
-1
100
AcDbLine
10
196
20
112
11
201
21
117
0
LINE
5
87
100
AcDbEntity
8
0
6
ByLayer
62
256
370
-1
100
AcDbLine
10
190
20
112
11
195
21
117
0
LINE
5
88
100
AcDbEntity
8
0
6
ByLayer
62
256
370
-1
100
AcDbLine
10
184
20
112
11
189
21
117
0
LINE
5
89
100
AcDbEntity
8
0
6
ByLayer
62
256
370
-1
100
AcDbLine
10
180
20
114
11
183
21
117
0
LINE
5
8A
100
AcDbEntity
8
0
6
ByLayer
62
256
370
-1
100
AcDbLine
10
208
20
112
11
210
21
114
0
LINE
5
8B
100
AcDbEntity
8
0
6
ByLayer
62
256
370
-1
100
AcDbLine
10
232
20
112
11
237
21
117
0
LINE
5
8C
100
AcDbEntity
8
0
6
ByLayer
62
256
370
-1
100
AcDbLine
10
226
20
112
11
231
21
117
0
LINE
5
8D
100
AcDbEntity
8
0
6
ByLayer
62
256
370
-1
100
AcDbLine
10
220
20
112
11
225
21
117
0
LINE
5
8E
100
AcDbEntity
8
0
6
ByLayer
62
256
370
-1
100
AcDbLine
10
214
20
112
11
219
21
117
0
LINE
5
8F
100
AcDbEntity
8
0
6
ByLayer
62
256
370
-1
100
AcDbLine
10
210
20
114
11
213
21
117
0
LINE
5
90
100
AcDbEntity
8
0
6
ByLayer
62
256
370
-1
100
AcDbLine
10
238
20
112
11
240
21
114
0
LINE
5
91
100
AcDbEntity
8
0
6
ByLayer
62
256
370
-1
100
AcDbLine
10
262
20
112
11
267
21
117
0
LINE
5
92
100
AcDbEntity
8
0
6
ByLayer
62
256
370
-1
100
AcDbLine
10
256
20
112
11
261
21
117
0
LINE
5
93
100
AcDbEntity
8
0
6
ByLayer
62
256
370
-1
100
AcDbLine
10
250
20
112
11
255
21
117
0
LINE
5
94
100
AcDbEntity
8
0
6
ByLayer
62
256
370
-1
100
AcDbLine
10
244
20
112
11
249
21
117
0
LINE
5
95
100
AcDbEntity
8
0
6
ByLayer
62
256
370
-1
100
AcDbLine
10
240
20
114
11
243
21
117
0
LINE
5
96
100
AcDbEntity
8
0
6
ByLayer
62
256
370
-1
100
AcDbLine
10
268
20
112
11
270
21
114
0
LINE
5
97
100
AcDbEntity
8
0
6
ByLayer
62
256
370
-1
100
AcDbLine
10
289.44812218
20
109.44812218
11
293.230964798
21
113.230964798
0
LINE
5
98
100
AcDbEntity
8
0
6
ByLayer
62
256
370
-1
100
AcDbLine
10
284.993709534
20
110.993709534
11
288.981241139
21
114.981241139
0
LINE
5
99
100
AcDbEntity
8
0
6
ByLayer
62
256
370
-1
100
AcDbLine
10
280
20
112
11
284.317728441
21
116.317728441
0
LINE
5
9A
100
AcDbEntity
8
0
6
ByLayer
62
256
370
-1
100
AcDbLine
10
274
20
112
11
279
21
117
0
LINE
5
9B
100
AcDbEntity
8
0
6
ByLayer
62
256
370
-1
100
AcDbLine
10
270
20
114
11
273
21
117
0
LINE
5
9C
100
AcDbEntity
8
0
6
ByLayer
62
256
370
-1
100
AcDbLine
10
293.469799334
20
107.469799334
11
297.120222757
21
111.120222757
0
LINE
5
9D
100
AcDbEntity
8
0
6
ByLayer
62
256
370
-1
100
AcDbLine
10
297.109589773
20
105.109589773
11
300
21
108
0
LINE
5
9E
100
AcDbEntity
8
0
6
ByLayer
62
256
370
-1
100
AcDbLine
10
305.936666673
20
95.9366666732
11
309.529432325
21
99.5294323246
0
LINE
5
9F
100
AcDbEntity
8
0
6
ByLayer
62
256
370
-1
100
AcDbLine
10
303.338387918
20
99.338387918
11
306.882894328
21
102.882894328
0
LINE
5
A0
100
AcDbEntity
8
0
6
ByLayer
62
256
370
-1
100
AcDbLine
10
300.395277572
20
102.395277572
11
303.933048181
21
105.933048181
0
LINE
5
A1
100
AcDbEntity
8
0
6
ByLayer
62
256
370
-1
100
AcDbLine
10
300
20
108
11
300.681431458
21
108.681431458
0
LINE
5
A2
100
AcDbEntity
8
0
6
ByLayer
62
256
370
-1
100
AcDbLine
10
308.173610749
20
92.1736107485
11
311.861520636
21
95.8615206359
0
LINE
5
A3
100
AcDbEntity
8
0
6
ByLayer
62
256
370
-1
100
AcDbLine
10
312
20
90
11
313.856549919
21
91.8565499195
0
LWPOLYLINE
5
A4
100
AcDbEntity
8
0
6
ByLayer
62
256
370
-1
100
AcDbPolyline
90
4
70
0
43
0
10
40
20
70
10
50
20
70
42
0.333333333333
10
80
20
40
10
180
20
40
0
LWPOLYLINE
5
A5
100
AcDbEntity
8
0
6
ByLayer
62
256
370
-1
100
AcDbPolyline
90
4
70
0
43
0
10
40
20
63
10
44.380118823
20
63
42
0.296758352613
10
79.5250801987
20
33
10
180
20
33
0
LWPOLYLINE
5
A6
100
AcDbEntity
8
0
6
ByLayer
62
256
370
-1
100
AcDbPolyline
90
4
70
0
43
0
10
40
20
68
10
48.3063853479
20
68
42
0.321500081881
10
79.8598291626
20
38
10
180
20
38
0
LINE
5
A7
100
AcDbEntity
8
0
6
ByLayer
62
256
370
-1
100
AcDbLine
10
40
20
63
11
40
21
68
0
LINE
5
A8
100
AcDbEntity
8
0
6
ByLayer
62
256
370
-1
100
AcDbLine
10
40
20
68
11
40
21
70
0
LINE
5
A9
100
AcDbEntity
8
0
6
ByLayer
62
256
370
-1
100
AcDbLine
10
180
20
33
11
180
21
38
0
LINE
5
AA
100
AcDbEntity
8
0
6
ByLayer
62
256
370
-1
100
AcDbLine
10
180
20
38
11
180
21
40
0
LINE
5
AB
100
AcDbEntity
8
0
6
ByLayer
62
256
370
-1
100
AcDbLine
10
44
20
68
11
40
21
64
0
LINE
5
AC
100
AcDbEntity
8
0
6
ByLayer
62
256
370
-1
100
AcDbLine
10
48.6011009619
20
66.6011009619
11
44.5238338611
21
62.5238338611
0
LINE
5
AD
100
AcDbEntity
8
0
6
ByLayer
62
256
370
-1
100
AcDbLine
10
49.98519877
20
61.98519877
11
48
21
60
0
LINE
5
AE
100
AcDbEntity
8
0
6
ByLayer
62
256
370
-1
100
AcDbLine
10
158
20
38
11
153
21
33
0
LINE
5
AF
100
AcDbEntity
8
0
6
ByLayer
62
256
370
-1
100
AcDbLine
10
164
20
38
11
159
21
33
0
LINE
5
B0
100
AcDbEntity
8
0
6
ByLayer
62
256
370
-1
100
AcDbLine
10
170
20
38
11
165
21
33
0
LINE
5
B1
100
AcDbEntity
8
0
6
ByLayer
62
256
370
-1
100
AcDbLine
10
176
20
38
11
171
21
33
0
LINE
5
B2
100
AcDbEntity
8
0
6
ByLayer
62
256
370
-1
100
AcDbLine
10
180
20
36
11
177
21
33
0
LINE
5
B3
100
AcDbEntity
8
0
6
ByLayer
62
256
370
-1
100
AcDbLine
10
152
20
38
11
150
21
36
0
LINE
5
B4
100
AcDbEntity
8
0
6
ByLayer
62
256
370
-1
100
AcDbLine
10
128
20
38
11
123
21
33
0
LINE
5
B5
100
AcDbEntity
8
0
6
ByLayer
62
256
370
-1
100
AcDbLine
10
134
20
38
11
129
21
33
0
LINE
5
B6
100
AcDbEntity
8
0
6
ByLayer
62
256
370
-1
100
AcDbLine
10
140
20
38
11
135
21
33
0
LINE
5
B7
100
AcDbEntity
8
0
6
ByLayer
62
256
370
-1
100
AcDbLine
10
146
20
38
11
141
21
33
0
LINE
5
B8
100
AcDbEntity
8
0
6
ByLayer
62
256
370
-1
100
AcDbLine
10
150
20
36
11
147
21
33
0
LINE
5
B9
100
AcDbEntity
8
0
6
ByLayer
62
256
370
-1
100
AcDbLine
10
122
20
38
11
120
21
36
0
LINE
5
BA
100
AcDbEntity
8
0
6
ByLayer
62
256
370
-1
100
AcDbLine
10
98
20
38
11
93
21
33
0
LINE
5
BB
100
AcDbEntity
8
0
6
ByLayer
62
256
370
-1
100
AcDbLine
10
104
20
38
11
99
21
33
0
LINE
5
BC
100
AcDbEntity
8
0
6
ByLayer
62
256
370
-1
100
AcDbLine
10
110
20
38
11
105
21
33
0
LINE
5
BD
100
AcDbEntity
8
0
6
ByLayer
62
256
370
-1
100
AcDbLine
10
116
20
38
11
111
21
33
0
LINE
5
BE
100
AcDbEntity
8
0
6
ByLayer
62
256
370
-1
100
AcDbLine
10
120
20
36
11
117
21
33
0
LINE
5
BF
100
AcDbEntity
8
0
6
ByLayer
62
256
370
-1
100
AcDbLine
10
92
20
38
11
90
21
36
0
LINE
5
C0
100
AcDbEntity
8
0
6
ByLayer
62
256
370
-1
100
AcDbLine
10
70.5518778202
20
40.5518778202
11
66.7690352022
21
36.7690352022
0
LINE
5
C1
100
AcDbEntity
8
0
6
ByLayer
62
256
370
-1
100
AcDbLine
10
75.0062904663
20
39.0062904663
11
71.0187588607
21
35.0187588607
0
LINE
5
C2
100
AcDbEntity
8
0
6
ByLayer
62
256
370
-1
100
AcDbLine
10
80
20
38
11
75.6822715589
21
33.6822715589
0
LINE
5
C3
100
AcDbEntity
8
0
6
ByLayer
62
256
370
-1
100
AcDbLine
10
86
20
38
11
81
21
33
0
LINE
5
C4
100
AcDbEntity
8
0
6
ByLayer
62
256
370
-1
100
AcDbLine
10
90
20
36
11
87
21
33
0
LINE
5
C5
100
AcDbEntity
8
0
6
ByLayer
62
256
370
-1
100
AcDbLine
10
66.5302006659
20
42.5302006659
11
62.879777243
21
38.879777243
0
LINE
5
C6
100
AcDbEntity
8
0
6
ByLayer
62
256
370
-1
100
AcDbLine
10
62.8904102269
20
44.8904102269
11
60
21
42
0
LINE
5
C7
100
AcDbEntity
8
0
6
ByLayer
62
256
370
-1
100
AcDbLine
10
54.0633333268
20
54.0633333268
11
50.4705676754
21
50.4705676754
0
LINE
5
C8
100
AcDbEntity
8
0
6
ByLayer
62
256
370
-1
100
AcDbLine
10
56.661612082
20
50.661612082
11
53.1171056721
21
47.1171056721
0
LINE
5
C9
100
AcDbEntity
8
0
6
ByLayer
62
256
370
-1
100
AcDbLine
10
59.6047224277
20
47.6047224277
11
56.0669518188
21
44.0669518188
0
LINE
5
CA
100
AcDbEntity
8
0
6
ByLayer
62
256
370
-1
100
AcDbLine
10
60
20
42
11
59.3185685417
21
41.3185685417
0
LINE
5
CB
100
AcDbEntity
8
0
6
ByLayer
62
256
370
-1
100
AcDbLine
10
51.8263892515
20
57.8263892515
11
48.1384793641
21
54.1384793641
0
LINE
5
CC
100
AcDbEntity
8
0
6
ByLayer
62
256
370
-1
100
AcDbLine
10
48
20
60
11
46.1434500805
21
58.1434500805
0
LWPOLYLINE
5
CD
100
AcDbEntity
8
0
6
ByLayer
62
256
370
-1
100
AcDbPolyline
90
4
70
0
43
0
10
320
20
70
10
310
20
70
42
-0.333333333333
10
280
20
40
10
180
20
40
0
LWPOLYLINE
5
CE
100
AcDbEntity
8
0
6
ByLayer
62
256
370
-1
100
AcDbPolyline
90
4
70
0
43
0
10
320
20
63
10
315.619881177
20
63
42
-0.296758352613
10
280.474919801
20
33
10
180
20
33
0
LWPOLYLINE
5
CF
100
AcDbEntity
8
0
6
ByLayer
62
256
370
-1
100
AcDbPolyline
90
4
70
0
43
0
10
320
20
68
10
311.693614652
20
68
42
-0.321500081881
10
280.140170837
20
38
10
180
20
38
0
LINE
5
D0
100
AcDbEntity
8
0
6
ByLayer
62
256
370
-1
100
AcDbLine
10
320
20
63
11
320
21
68
0
LINE
5
D1
100
AcDbEntity
8
0
6
ByLayer
62
256
370
-1
100
AcDbLine
10
320
20
68
11
320
21
70
0
LINE
5
D2
100
AcDbEntity
8
0
6
ByLayer
62
256
370
-1
100
AcDbLine
10
180
20
33
11
180
21
38
0
LINE
5
D3
100
AcDbEntity
8
0
6
ByLayer
62
256
370
-1
100
AcDbLine
10
180
20
38
11
180
21
40
0
LINE
5
D4
100
AcDbEntity
8
0
6
ByLayer
62
256
370
-1
100
AcDbLine
10
316
20
68
11
320
21
64
0
LINE
5
D5
100
AcDbEntity
8
0
6
ByLayer
62
256
370
-1
100
AcDbLine
10
311.398899038
20
66.6011009619
11
315.476166139
21
62.5238338611
0
LINE
5
D6
100
AcDbEntity
8
0
6
ByLayer
62
256
370
-1
100
AcDbLine
10
310.01480123
20
61.98519877
11
312
21
60
0
LINE
5
D7
100
AcDbEntity
8
0
6
ByLayer
62
256
370
-1
100
AcDbLine
10
202
20
38
11
207
21
33
0
LINE
5
D8
100
AcDbEntity
8
0
6
ByLayer
62
256
370
-1
100
AcDbLine
10
196
20
38
11
201
21
33
0
LINE
5
D9
100
AcDbEntity
8
0
6
ByLayer
62
256
370
-1
100
AcDbLine
10
190
20
38
11
195
21
33
0
LINE
5
DA
100
AcDbEntity
8
0
6
ByLayer
62
256
370
-1
100
AcDbLine
10
184
20
38
11
189
21
33
0
LINE
5
DB
100
AcDbEntity
8
0
6
ByLayer
62
256
370
-1
100
AcDbLine
10
180
20
36
11
183
21
33
0
LINE
5
DC
100
AcDbEntity
8
0
6
ByLayer
62
256
370
-1
100
AcDbLine
10
208
20
38
11
210
21
36
0
LINE
5
DD
100
AcDbEntity
8
0
6
ByLayer
62
256
370
-1
100
AcDbLine
10
232
20
38
11
237
21
33
0
LINE
5
DE
100
AcDbEntity
8
0
6
ByLayer
62
256
370
-1
100
AcDbLine
10
226
20
38
11
231
21
33
0
LINE
5
DF
100
AcDbEntity
8
0
6
ByLayer
62
256
370
-1
100
AcDbLine
10
220
20
38
11
225
21
33
0
LINE
5
E0
100
AcDbEntity
8
0
6
ByLayer
62
256
370
-1
100
AcDbLine
10
214
20
38
11
219
21
33
0
LINE
5
E1
100
AcDbEntity
8
0
6
ByLayer
62
256
370
-1
100
AcDbLine
10
210
20
36
11
213
21
33
0
LINE
5
E2
100
AcDbEntity
8
0
6
ByLayer
62
256
370
-1
100
AcDbLine
10
238
20
38
11
240
21
36
0
LINE
5
E3
100
AcDbEntity
8
0
6
ByLayer
62
256
370
-1
100
AcDbLine
10
262
20
38
11
267
21
33
0
LINE
5
E4
100
AcDbEntity
8
0
6
ByLayer
62
256
370
-1
100
AcDbLine
10
256
20
38
11
261
21
33
0
LINE
5
E5
100
AcDbEntity
8
0
6
ByLayer
62
256
370
-1
100
AcDbLine
10
250
20
38
11
255
21
33
0
LINE
5
E6
100
AcDbEntity
8
0
6
ByLayer
62
256
370
-1
100
AcDbLine
10
244
20
38
11
249
21
33
0
LINE
5
E7
100
AcDbEntity
8
0
6
ByLayer
62
256
370
-1
100
AcDbLine
10
240
20
36
11
243
21
33
0
LINE
5
E8
100
AcDbEntity
8
0
6
ByLayer
62
256
370
-1
100
AcDbLine
10
268
20
38
11
270
21
36
0
LINE
5
E9
100
AcDbEntity
8
0
6
ByLayer
62
256
370
-1
100
AcDbLine
10
289.44812218
20
40.5518778202
11
293.230964798
21
36.7690352022
0
LINE
5
EA
100
AcDbEntity
8
0
6
ByLayer
62
256
370
-1
100
AcDbLine
10
284.993709534
20
39.0062904663
11
288.981241139
21
35.0187588607
0
LINE
5
EB
100
AcDbEntity
8
0
6
ByLayer
62
256
370
-1
100
AcDbLine
10
280
20
38
11
284.317728441
21
33.6822715589
0
LINE
5
EC
100
AcDbEntity
8
0
6
ByLayer
62
256
370
-1
100
AcDbLine
10
274
20
38
11
279
21
33
0
LINE
5
ED
100
AcDbEntity
8
0
6
ByLayer
62
256
370
-1
100
AcDbLine
10
270
20
36
11
273
21
33
0
LINE
5
EE
100
AcDbEntity
8
0
6
ByLayer
62
256
370
-1
100
AcDbLine
10
293.469799334
20
42.5302006659
11
297.120222757
21
38.879777243
0
LINE
5
EF
100
AcDbEntity
8
0
6
ByLayer
62
256
370
-1
100
AcDbLine
10
297.109589773
20
44.8904102269
11
300
21
42
0
LINE
5
F0
100
AcDbEntity
8
0
6
ByLayer
62
256
370
-1
100
AcDbLine
10
305.936666673
20
54.0633333268
11
309.529432325
21
50.4705676754
0
LINE
5
F1
100
AcDbEntity
8
0
6
ByLayer
62
256
370
-1
100
AcDbLine
10
303.338387918
20
50.661612082
11
306.882894328
21
47.1171056721
0
LINE
5
F2
100
AcDbEntity
8
0
6
ByLayer
62
256
370
-1
100
AcDbLine
10
300.395277572
20
47.6047224277
11
303.933048181
21
44.0669518188
0
LINE
5
F3
100
AcDbEntity
8
0
6
ByLayer
62
256
370
-1
100
AcDbLine
10
300
20
42
11
300.681431458
21
41.3185685417
0
LINE
5
F4
100
AcDbEntity
8
0
6
ByLayer
62
256
370
-1
100
AcDbLine
10
308.173610749
20
57.8263892515
11
311.861520636
21
54.1384793641
0
LINE
5
F5
100
AcDbEntity
8
0
6
ByLayer
62
256
370
-1
100
AcDbLine
10
312
20
60
11
313.856549919
21
58.1434500805
0
ENDSEC
0
SECTION
2
OBJECTS
0
DICTIONARY
5
C
330
0
100
AcDbDictionary
281
1
3
ACAD_GROUP
350
D
0
DICTIONARY
5
D
330
C
100
AcDbDictionary
281
1
0
ENDSEC
0
EOF
