<?xml version="1.0" encoding="UTF-8" standalone="no"?>
<!-- Created with Inkscape (http://www.inkscape.org/) -->

<svg
   xmlns:dc="http://purl.org/dc/elements/1.1/"
   xmlns:cc="http://creativecommons.org/ns#"
   xmlns:rdf="http://www.w3.org/1999/02/22-rdf-syntax-ns#"
   xmlns:svg="http://www.w3.org/2000/svg"
   xmlns="http://www.w3.org/2000/svg"
   xmlns:sodipodi="http://sodipodi.sourceforge.net/DTD/sodipodi-0.dtd"
   xmlns:inkscape="http://www.inkscape.org/namespaces/inkscape"
   width="465.43323"
   height="228.9644"
   id="svg2"
   version="1.1"
   inkscape:version="0.48.4 r9939"
   sodipodi:docname="WaterTowerExample1.svg">
  <sodipodi:namedview
     id="base"
     pagecolor="#ffffff"
     bordercolor="#666666"
     borderopacity="1.0"
     inkscape:pageopacity="0.0"
     inkscape:pageshadow="2"
     inkscape:zoom="0.49497475"
     inkscape:cx="596.1432"
     inkscape:cy="-91.292814"
     inkscape:document-units="px"
     inkscape:current-layer="layer1"
     showgrid="false"
     inkscape:window-width="1908"
     inkscape:window-height="995"
     inkscape:window-x="0"
     inkscape:window-y="25"
     inkscape:window-maximized="1"
     fit-margin-top="0"
     fit-margin-left="0"
     fit-margin-right="0"
     fit-margin-bottom="0" />
  <defs
     id="defs4">
    <marker
       style="overflow:visible"
       id="Arrow1Mend"
       refX="0"
       refY="0"
       orient="auto"
       inkscape:stockid="Arrow1Mend">
      <path
         transform="matrix(-0.4,0,0,-0.4,-4,0)"
         style="fill-rule:evenodd;stroke:#000000;stroke-width:1pt"
         d="M 0,0 5,-5 -12.5,0 5,5 0,0 z"
         id="path3890"
         inkscape:connector-curvature="0" />
    </marker>
    <marker
       style="overflow:visible"
       id="Arrow1Mstart"
       refX="0"
       refY="0"
       orient="auto"
       inkscape:stockid="Arrow1Mstart">
      <path
         transform="matrix(0.4,0,0,0.4,4,0)"
         style="fill-rule:evenodd;stroke:#000000;stroke-width:1pt"
         d="M 0,0 5,-5 -12.5,0 5,5 0,0 z"
         id="path3887"
         inkscape:connector-curvature="0" />
    </marker>
    <marker
       style="overflow:visible"
       id="Arrow1Lstart"
       refX="0"
       refY="0"
       orient="auto"
       inkscape:stockid="Arrow1Lstart">
      <path
         transform="matrix(0.8,0,0,0.8,10,0)"
         style="fill-rule:evenodd;stroke:#000000;stroke-width:1pt"
         d="M 0,0 5,-5 -12.5,0 5,5 0,0 z"
         id="path3881"
         inkscape:connector-curvature="0" />
    </marker>
  </defs>
  <metadata
     id="metadata7">
    <rdf:RDF>
      <cc:Work
         rdf:about="">
        <dc:format>image/svg+xml</dc:format>
        <dc:type
           rdf:resource="http://purl.org/dc/dcmitype/StillImage" />
        <dc:title></dc:title>
      </cc:Work>
    </rdf:RDF>
  </metadata>
  <g
     id="layer1"
     inkscape:groupmode="layer"
     inkscape:label="Layer 1"
     transform="translate(-85.860255,-19.48628)">
    <rect
       y="19.98628"
       x="212.13203"
       height="209.10158"
       width="58.588848"
       id="rect2993"
       style="fill:#ffffff;fill-opacity:1;stroke:#000000;stroke-width:1;stroke-linecap:round;stroke-linejoin:round;stroke-miterlimit:4;stroke-opacity:1;stroke-dasharray:none" />
    <g
       id="g3849">
      <path
         sodipodi:type="arc"
         style="fill:#ffffff;fill-opacity:1;stroke:#000000;stroke-width:1;stroke-linecap:round;stroke-linejoin:round;stroke-miterlimit:4;stroke-opacity:1;stroke-dasharray:none"
         id="path2991"
         sodipodi:cx="122.481"
         sodipodi:cy="192.46983"
         sodipodi:rx="34.092648"
         sodipodi:ry="32.577419"
         d="m 155.63655,184.88423 c 4.38427,17.49747 -6.90583,35.07816 -25.21713,39.26757 -18.3113,4.18941 -36.709693,-6.5989 -41.093961,-24.09637 -4.384269,-17.49746 6.905823,-35.07815 25.217121,-39.26756 18.26021,-4.17772 36.61828,6.53933 41.06237,23.97134"
         sodipodi:start="6.0481797"
         sodipodi:end="12.327417"
         sodipodi:open="true"
         transform="translate(-2.0203051,-0.50507627)" />
      <text
         xml:space="preserve"
         style="font-size:16px;font-style:normal;font-weight:normal;line-height:125%;letter-spacing:0px;word-spacing:0px;fill:#000000;fill-opacity:1;stroke:none;font-family:Sans"
         x="121.32618"
         y="189.18683"
         id="text2995"
         sodipodi:linespacing="125%"><tspan
           sodipodi:role="line"
           id="tspan2997"
           x="121.32618"
           y="189.18683"
           style="font-size:12px;text-align:center;text-anchor:middle">Flow</tspan><tspan
           sodipodi:role="line"
           x="121.32618"
           y="204.18683"
           id="tspan2999"
           style="font-size:12px;text-align:center;text-anchor:middle">source</tspan></text>
    </g>
    <g
       transform="translate(-44.194173,-19.67767)"
       id="g3791">
      <path
         style="fill:#424242;fill-opacity:1;stroke:#000000;stroke-width:0.84466904px;stroke-linecap:butt;stroke-linejoin:miter;stroke-opacity:1"
         d="m 408.81488,214.06307 -25.94657,10.74496 -0.39403,-21.84208 z"
         id="path3003"
         inkscape:connector-curvature="0"
         sodipodi:nodetypes="cccc" />
      <path
         style="fill:#424242;fill-opacity:1;stroke:#000000;stroke-width:0.84466904px;stroke-linecap:butt;stroke-linejoin:miter;stroke-opacity:1"
         d="m 409.59755,214.01148 25.94658,10.74496 0.39403,-21.84208 z"
         id="path3003-5"
         inkscape:connector-curvature="0"
         sodipodi:nodetypes="cccc" />
    </g>
    <path
       inkscape:connector-curvature="0"
       id="path3795"
       d="m 154.80588,195.24775 56.316,0"
       style="fill:none;stroke:#000000;stroke-width:1px;stroke-linecap:butt;stroke-linejoin:miter;stroke-opacity:1" />
    <path
       inkscape:connector-curvature="0"
       id="path3799"
       d="m 271.22596,195.24775 66.9226,0"
       style="fill:none;stroke:#000000;stroke-width:1px;stroke-linecap:butt;stroke-linejoin:miter;stroke-opacity:1" />
    <g
       transform="translate(-1.0101525,5.0507627)"
       id="g3862">
      <path
         sodipodi:type="arc"
         style="fill:#ffffff;fill-opacity:1;stroke:#000000;stroke-width:1;stroke-linecap:round;stroke-linejoin:round;stroke-miterlimit:4;stroke-opacity:1;stroke-dasharray:none"
         id="path2991-8"
         sodipodi:cx="122.481"
         sodipodi:cy="192.46983"
         sodipodi:rx="34.092648"
         sodipodi:ry="32.577419"
         d="m 155.63655,184.88423 c 4.38427,17.49747 -6.90583,35.07816 -25.21713,39.26757 -18.3113,4.18941 -36.709693,-6.5989 -41.093961,-24.09637 -4.384269,-17.49746 6.905823,-35.07815 25.217121,-39.26756 18.26021,-4.17772 36.61828,6.53933 41.06237,23.97134"
         sodipodi:start="6.0481797"
         sodipodi:end="12.327417"
         sodipodi:open="true"
         transform="matrix(1.4486554,0,0,1.0122633,324.86559,-5.1382859)" />
      <text
         xml:space="preserve"
         style="font-size:16px;font-style:normal;font-weight:normal;line-height:125%;letter-spacing:0px;word-spacing:0px;fill:#000000;fill-opacity:1;stroke:none;font-family:Sans"
         x="500.95712"
         y="186.6669"
         id="text2995-6"
         sodipodi:linespacing="125%"><tspan
           sodipodi:role="line"
           id="tspan2997-2"
           x="500.95712"
           y="186.6669"
           style="font-size:12px;text-align:center;text-anchor:middle">Atmospheric</tspan><tspan
           id="tspan3855"
           sodipodi:role="line"
           x="500.95712"
           y="201.6669"
           style="font-size:12px;text-align:center;text-anchor:middle">pressure</tspan><tspan
           sodipodi:role="line"
           x="500.95712"
           y="216.6669"
           id="tspan2999-4"
           style="font-size:12px;text-align:center;text-anchor:middle" /></text>
    </g>
    <path
       inkscape:connector-curvature="0"
       id="path3871"
       d="m 392.44426,194.74267 58.84139,0"
       style="fill:none;stroke:#000000;stroke-width:1px;stroke-linecap:butt;stroke-linejoin:miter;stroke-opacity:1" />
    <rect
       y="68.076462"
       x="212.5"
       height="160.78113"
       width="57.691261"
       id="rect3873"
       style="fill:#251acc;fill-opacity:1;stroke:none" />
    <path
       inkscape:connector-curvature="0"
       id="path3875"
       d="m 194.45437,68.978679 0,159.604101"
       style="fill:none;stroke:#000000;stroke-width:1px;stroke-linecap:butt;stroke-linejoin:miter;stroke-opacity:1;marker-start:url(#Arrow1Mstart);marker-end:url(#Arrow1Mend)" />
    <g
       id="g4732"
       transform="matrix(0.27324314,0,0,0.27324314,58.359541,15.401939)">
      <g
         word-spacing="normal"
         letter-spacing="normal"
         font-size-adjust="none"
         font-stretch="normal"
         font-weight="normal"
         font-variant="normal"
         font-style="normal"
         stroke-miterlimit="10.433"
         xml:space="preserve"
         transform="matrix(1.0629921,0,0,-1.0629921,-186.02362,789.27165)"
         id="content"
         style="font-style:normal;font-variant:normal;font-weight:normal;font-stretch:normal;letter-spacing:normal;word-spacing:normal;text-anchor:start;fill:none;stroke:#000000;stroke-linecap:butt;stroke-linejoin:miter;stroke-miterlimit:10.43299961;stroke-opacity:1;stroke-dasharray:none;stroke-dashoffset:0"><path
           id="path4735"
           d="m 469.82,440.23 0,0 0,0.01 0,0 0,0.01 -0.01,0.02 0,0.01 0,0.02 0,0.02 0,0.02 -0.01,0.02 0,0.02 -0.01,0.02 -0.01,0.02 -0.01,0.03 -0.01,0.02 -0.01,0.03 -0.01,0.02 -0.02,0.03 -0.02,0.02 -0.02,0.02 -0.02,0.03 -0.01,0.01 -0.01,0.01 -0.02,0.01 -0.01,0.01 -0.02,0.01 -0.01,0.01 -0.02,0.01 -0.01,0.01 -0.02,0.01 -0.02,0.01 -0.02,0 -0.02,0.01 -0.02,0.01 -0.02,0 -0.02,0.01 -0.02,0.01 -0.03,0 -0.02,0 -0.03,0.01 -0.02,0 -0.03,0 -0.03,0.01 -0.02,0 -0.03,0 c -1.16,0 -4.79,-0.41 -6.08,-0.5 -0.41,-0.05 -0.96,-0.1 -0.96,-1 0,-0.6 0.46,-0.6 1.21,-0.6 2.39,0 2.48,-0.34 2.48,-0.84 l -0.15,-1 -7.22,-28.7 c -0.21,-0.69 -0.21,-0.8 -0.21,-1.1 0,-1.14 1,-1.39 1.46,-1.39 0.79,0 1.59,0.6 1.84,1.3 l 0.94,3.78 1.11,4.48 c 0.29,1.1 0.59,2.19 0.84,3.35 0.1,0.3 0.5,1.94 0.55,2.23 0.14,0.46 1.69,3.25 3.39,4.6 1.09,0.79 2.64,1.73 4.78,1.73 2.14,0 2.69,-1.69 2.69,-3.48 0,-2.69 -1.89,-8.13 -3.1,-11.16 -0.39,-1.16 -0.64,-1.75 -0.64,-2.75 0,-2.33 1.74,-4.08 4.08,-4.08 4.69,0 6.53,7.27 6.53,7.67 0,0.5 -0.45,0.5 -0.59,0.5 -0.5,0 -0.5,-0.15 -0.75,-0.9 -0.75,-2.64 -2.34,-6.17 -5.08,-6.17 -0.86,0 -1.2,0.5 -1.2,1.64 0,1.25 0.45,2.45 0.9,3.54 0.8,2.14 3.04,8.07 3.04,10.96 0,3.23 -2,5.32 -5.74,5.32 -3.14,0 -5.53,-1.53 -7.37,-3.82 z"
           inkscape:connector-curvature="0"
           style="fill:#000000;stroke-width:0" /><path
           id="path4737"
           d="m 520.29,418.45 0.63,0.91 c 0.73,0.93 1.58,1.81 3.28,1.95 0.39,0.03 0.8,0.06 0.8,0.76 0,0.25 -0.21,0.49 -0.49,0.49 -0.79,0 -1.81,-0.14 -2.64,-0.14 -1.22,0 -2.72,0.14 -3.87,0.14 -0.18,0 -0.74,0 -0.74,-0.77 0,-0.45 0.5,-0.48 0.63,-0.48 0.78,-0.03 1.92,-0.25 1.92,-1.22 0,-0.39 -0.38,-1.02 -0.52,-1.25 l -9.83,-16.14 -1.92,17.59 c 0,0.99 2.02,1.02 2.44,1.02 0.45,0 0.94,0 0.94,0.76 0,0.04 -0.03,0.49 -0.58,0.49 -0.67,0 -1.5,-0.06 -2.17,-0.11 -0.69,-0.03 -1.6,-0.03 -2.3,-0.03 -0.8,0 -2.86,0.14 -3.66,0.14 -0.17,0 -0.7,0 -0.7,-0.77 0,-0.48 0.45,-0.48 0.91,-0.48 1.5,0 1.67,-0.25 1.78,-0.6 0.03,-0.2 0.11,-1.18 0.25,-2.26 l -9.59,-15.75 -1.85,17.08 c 0,0.14 -0.06,0.48 -0.06,0.51 0,1.02 2.16,1.02 2.44,1.02 0.45,0 0.93,0 0.93,0.76 0,0.14 -0.11,0.49 -0.56,0.49 -1,0 -3.48,-0.14 -4.48,-0.14 -1.16,0 -2.63,0.14 -3.66,0.14 -0.36,0 -0.7,-0.14 -0.7,-0.74 0,-0.51 0.42,-0.51 0.97,-0.51 1.64,0 1.64,-0.22 1.75,-1.08 l 2.32,-21.22 c 0.08,-0.7 0.11,-0.95 0.74,-0.95 0.59,0 0.84,0.31 1.05,0.7 l 10.87,17.91 1.91,-17.71 c 0.08,-0.71 0.25,-0.9 0.78,-0.9 0.58,0 0.8,0.31 1.03,0.73 z"
           inkscape:connector-curvature="0"
           style="fill:#000000;stroke-width:0" /><path
           id="path4739"
           d="m 541.74,412.07 -0.07,0.11 -0.07,0.11 -0.08,0.1 -0.07,0.1 -0.09,0.1 -0.08,0.1 -0.09,0.09 -0.08,0.1 -0.1,0.09 -0.09,0.08 -0.1,0.09 -0.1,0.08 -0.1,0.08 -0.1,0.08 -0.11,0.07 -0.11,0.08 -0.12,0.06 -0.11,0.07 -0.12,0.06 -0.12,0.05 -0.13,0.06 -0.13,0.05 -0.13,0.04 -0.13,0.04 -0.13,0.04 -0.14,0.03 -0.14,0.03 -0.15,0.02 -0.14,0.02 -0.15,0.01 -0.16,0.01 -0.15,0 v -0.97 c 2.44,0 3.11,-2.64 3.11,-3.03 0,-0.14 -0.08,-0.39 -0.11,-0.48 l -1.64,-6.52 c -0.24,-0.98 -1,-1.67 -1.77,-2.34 -0.31,-0.27 -1.72,-1.39 -3.22,-1.39 -1.28,0 -2.53,0.9 -2.53,3.37 0,1.86 1,5.69 1.81,7.08 1.6,2.8 3.38,3.31 4.35,3.31 v 0.97 c -4.45,0 -8.99,-4.91 -8.99,-9.92 0,-3.38 2.27,-5.78 5.27,-5.78 1.87,0 3.55,1.08 4.94,2.44 0.67,-2.1 2.68,-2.44 3.59,-2.44 1.25,0 2.13,0.76 2.75,1.84 0.77,1.36 1.22,3.35 1.22,3.49 0,0.45 -0.45,0.45 -0.55,0.45 -0.5,0 -0.53,-0.14 -0.76,-1.08 -0.42,-1.67 -1.1,-3.73 -2.55,-3.73 -0.91,0 -1.16,0.76 -1.16,1.7 0,0.59 0.29,1.86 0.54,2.77 0.23,0.93 0.59,2.35 0.76,3.12 l 0.69,2.66 c 0.22,0.9 0.62,2.54 0.62,2.72 0,0.76 -0.62,1.1 -1.17,1.1 -0.59,0 -1.4,-0.42 -1.61,-1.39 z"
           inkscape:connector-curvature="0"
           style="fill:#000000;stroke-width:0" /><path
           id="path4741"
           d="m 557.22,412.53 h 3.54 c 0.66,0 1.11,0 1.11,0.76 0,0.49 -0.45,0.49 -1.03,0.49 h -3.31 l 1.28,5.15 c 0.03,0.18 0.11,0.35 0.11,0.49 0,0.64 -0.49,1.12 -1.19,1.12 -0.88,0 -1.39,-0.59 -1.64,-1.5 -0.24,-0.87 0.22,0.8 -1.33,-5.26 h -3.54 c -0.66,0 -1.12,0 -1.12,-0.77 0,-0.48 0.41,-0.48 1.05,-0.48 h 3.3 l -2.05,-8.22 c -0.22,-0.88 -0.53,-2.13 -0.53,-2.58 0,-2.06 1.75,-3.31 3.73,-3.31 3.88,0 6.07,4.87 6.07,5.33 0,0.45 -0.45,0.45 -0.57,0.45 -0.4,0 -0.45,-0.08 -0.71,-0.66 -0.99,-2.2 -2.77,-4.15 -4.67,-4.15 -0.74,0 -1.22,0.45 -1.22,1.7 0,0.36 0.14,1.09 0.2,1.44 z"
           inkscape:connector-curvature="0"
           style="fill:#000000;stroke-width:0" /><path
           id="path4743"
           d="m 571.45,406.7 0.09,0 0.11,0 0.12,0 0.12,0 0.13,0.01 0.14,0 0.15,0.01 0.16,0 0.16,0.01 0.17,0.01 0.17,0.01 0.18,0.01 0.18,0.01 0.19,0.02 0.39,0.03 0.39,0.04 0.41,0.05 0.41,0.06 0.4,0.07 0.4,0.08 0.2,0.05 0.19,0.04 0.2,0.05 0.19,0.06 0.18,0.05 0.18,0.06 c 2.58,0.91 3.06,2.58 3.06,3.63 0,1.92 -1.92,3.06 -4.33,3.06 v -0.97 c 1.53,0 2.83,-0.76 2.83,-2.09 0,-3.38 -5.89,-3.38 -7.39,-3.38 h -1.7 c 1.42,5.05 5.29,5.47 6.26,5.47 v 0.97 c -4.17,0 -9.82,-3.2 -9.82,-9.16 0,-3.51 2.2,-6.54 6.28,-6.54 5.89,0 8.64,3.44 8.64,3.94 0,0.2 -0.32,0.59 -0.6,0.59 -0.2,0 -0.28,-0.08 -0.56,-0.36 -2.72,-3.2 -6.8,-3.2 -7.42,-3.2 -2.09,0 -3.49,1.39 -3.49,4.22 0,0.48 0,1.18 0.43,3.09 z"
           inkscape:connector-curvature="0"
           style="fill:#000000;stroke-width:0" /><path
           id="path4745"
           d="m 590.66,405.79 0.01,0.02 0,0.01 0,0.02 0.01,0.03 0,0.03 0.01,0.03 0.01,0.03 0.01,0.04 0.01,0.04 0.01,0.05 0.01,0.04 0.01,0.06 0.02,0.05 0.01,0.05 0.03,0.12 0.03,0.13 0.04,0.13 0.03,0.15 0.04,0.14 0.04,0.15 0.04,0.15 0.08,0.32 0.08,0.31 0.04,0.15 0.03,0.15 0.04,0.14 0.04,0.14 0.03,0.14 0.04,0.12 0.03,0.12 0.01,0.05 0.02,0.05 0.01,0.05 0.01,0.05 0.01,0.04 0.01,0.04 0.01,0.04 0.01,0.03 0.01,0.03 0.01,0.03 0.01,0.02 0,0.02 0.01,0.01 0,0.01 c 0.08,0.29 1.08,2.02 2.2,2.86 0.38,0.27 1.32,0.97 2.82,0.97 0.34,0 1.21,-0.03 1.92,-0.48 -1.13,-0.31 -1.53,-1.3 -1.53,-1.92 0,-0.77 0.59,-1.29 1.39,-1.29 0.79,0 1.95,0.66 1.95,2.13 0,1.81 -1.92,2.53 -3.7,2.53 -1.82,0 -3.38,-0.72 -4.91,-2.47 -0.62,2.13 -2.75,2.47 -3.59,2.47 -1.28,0 -2.16,-0.8 -2.72,-1.76 -0.8,-1.36 -1.28,-3.4 -1.28,-3.57 0,-0.45 0.48,-0.45 0.59,-0.45 0.49,0 0.52,0.11 0.77,1.05 0.51,2.12 1.18,3.76 2.54,3.76 0.91,0 1.14,-0.76 1.14,-1.7 0,-0.67 -0.31,-1.95 -0.56,-2.89 -0.23,-0.95 -0.58,-2.38 -0.76,-3.14 l -1.11,-4.47 c -0.14,-0.44 -0.35,-1.31 -0.35,-1.42 0,-0.77 0.63,-1.11 1.19,-1.11 0.52,0 1.22,0.31 1.48,1 0.08,0.22 0.46,1.75 0.68,2.62 z"
           inkscape:connector-curvature="0"
           style="fill:#000000;stroke-width:0" /></g>    </g>
    <text
       xml:space="preserve"
       style="font-size:16px;font-style:normal;font-weight:normal;line-height:125%;letter-spacing:0px;word-spacing:0px;fill:#000000;fill-opacity:1;stroke:none;font-family:Sans"
       x="206.07112"
       y="248.28076"
       id="text4786"
       sodipodi:linespacing="125%"><tspan
         sodipodi:role="line"
         x="206.07112"
         y="248.28076"
         id="tspan4790"
         style="font-size:12px">Water tower</tspan></text>
    <text
       xml:space="preserve"
       style="font-size:16px;font-style:normal;font-weight:normal;line-height:125%;letter-spacing:0px;word-spacing:0px;fill:#000000;fill-opacity:1;stroke:none;font-family:Sans"
       x="349.00772"
       y="225.04726"
       id="text4794"
       sodipodi:linespacing="125%"><tspan
         sodipodi:role="line"
         id="tspan4796"
         x="349.00772"
         y="225.04726"
         style="font-size:12px">Valve</tspan></text>
  </g>
</svg>
