<?xml version="1.0" encoding="UTF-8" standalone="no"?>
<svg
   xmlns:dc="http://purl.org/dc/elements/1.1/"
   xmlns:cc="http://creativecommons.org/ns#"
   xmlns:rdf="http://www.w3.org/1999/02/22-rdf-syntax-ns#"
   xmlns:svg="http://www.w3.org/2000/svg"
   xmlns="http://www.w3.org/2000/svg"
   xmlns:sodipodi="http://sodipodi.sourceforge.net/DTD/sodipodi-0.dtd"
   xmlns:inkscape="http://www.inkscape.org/namespaces/inkscape"
   width="1489.189"
   height="447.4567"
   id="svg2"
   version="1.1"
   inkscape:version="0.48.4 r9939"
   sodipodi:docname="COPV.svg">
  <metadata
     id="metadata376">
    <rdf:RDF>
      <cc:Work
         rdf:about="">
        <dc:format>image/svg+xml</dc:format>
        <dc:type
           rdf:resource="http://purl.org/dc/dcmitype/StillImage" />
        <dc:title />
      </cc:Work>
    </rdf:RDF>
  </metadata>
  <sodipodi:namedview
     pagecolor="#ffffff"
     bordercolor="#666666"
     borderopacity="1"
     objecttolerance="10"
     gridtolerance="10"
     guidetolerance="10"
     inkscape:pageopacity="0"
     inkscape:pageshadow="2"
     inkscape:window-width="1908"
     inkscape:window-height="1020"
     id="namedview374"
     showgrid="false"
     inkscape:zoom="0.31714785"
     inkscape:cx="1894.9687"
     inkscape:cy="-304.86779"
     inkscape:window-x="0"
     inkscape:window-y="25"
     inkscape:window-maximized="1"
     inkscape:current-layer="g20"
     fit-margin-top="0"
     fit-margin-left="0"
     fit-margin-right="0"
     fit-margin-bottom="0" />
  <desc
     id="desc4">/data/Workspace/Django/SmoWeb/django-example/SmoWeb/ThermoFluids/static/ThermoFluids/img/COPV.dxf - scale = 1.500000</desc>
  <defs
     id="defs6">
    <marker
       id="DistanceX"
       orient="auto"
       refX="0"
       refY="0"
       style="overflow:visible">
      <path
         d="M 3,-3 -3,3 M 0,-5 0,5"
         style="stroke:#000000;stroke-width:0.5"
         id="path9"
         inkscape:connector-curvature="0" />
    </marker>
    <pattern
       height="8"
       id="Hatch"
       patternUnits="userSpaceOnUse"
       width="8"
       x="0"
       y="0">
      <path
         d="M8 4 l-4,4"
         linecap="square"
         stroke="#000000"
         stroke-width="0.25"
         id="path12" />
      <path
         d="M6 2 l-4,4"
         linecap="square"
         stroke="#000000"
         stroke-width="0.25"
         id="path14" />
      <path
         d="M4 0 l-4,4"
         linecap="square"
         stroke="#000000"
         stroke-width="0.25"
         id="path16" />
    </pattern>
    <symbol
       id="*Model_Space" />
    <symbol
       id="*Paper_Space" />
  </defs>
  <g
     inkscape:groupmode="layer"
     inkscape:label="0"
     id="g20"
     transform="translate(0.5,-855.20866)">
    <path
       d="m 0,1052.3622 53.149606,0 c 5.700305,-39.9021 24.648081,-77.79768 53.149604,-106.29921 28.50153,-28.50152 66.39708,-47.4493 106.29921,-53.1496 l 531.49607,0 0,-10.62993 -532.24107,0 c -26.56888,3.69105 -52.36781,12.83733 -75.32862,26.70565 -22.96082,13.86832 -43.063019,32.44629 -58.695113,54.24462 -15.632095,21.79832 -28.034269,51.67477 -33.804563,77.87077 L 0,1041.7323 z"
       style="fill:#000000"
       id="path28"
       inkscape:connector-curvature="0"
       sodipodi:nodetypes="ccsccccssccc" />
    <path
       d="m 0,1052.3622 53.149606,0 A 187.91223,187.91223 0 0 1 212.59842,892.91339 l 531.49607,0"
       style="fill:none;stroke:#000000;stroke-linecap:round"
       id="path30"
       inkscape:connector-curvature="0" />
    <path
       d="m 0,1015.1575 23.280159,0 A 225.11696,225.11696 0 0 1 210.07424,855.70866 l 534.02025,0"
       style="fill:none;stroke:#000000;stroke-linecap:round"
       id="path32"
       inkscape:connector-curvature="0" />
    <path
       d="m 0,1041.7323 44.148111,0 A 198.54216,198.54216 0 0 1 211.85342,882.28346 l 532.24107,0"
       style="fill:none;stroke:#000000;stroke-linecap:round"
       id="path34"
       inkscape:connector-curvature="0" />
    <path
       d="m 0,1015.1575 0,26.5748"
       style="fill:none;stroke:#000000;stroke-linecap:round"
       id="path36"
       inkscape:connector-curvature="0" />
    <path
       d="m 0,1041.7323 0,10.6299"
       style="fill:none;stroke:#000000;stroke-linecap:round"
       id="path38"
       inkscape:connector-curvature="0" />
    <path
       d="m 744.09449,855.70866 0,26.5748"
       style="fill:none;stroke:#000000;stroke-linecap:round"
       id="path40"
       inkscape:connector-curvature="0" />
    <path
       d="m 744.09449,882.28346 0,10.62993"
       style="fill:none;stroke:#000000;stroke-linecap:round"
       id="path42"
       inkscape:connector-curvature="0" />
    <path
       d="m 0,1015.1575 23.280159,0"
       style="fill:none;stroke:#000000;stroke-linecap:round"
       id="path44"
       inkscape:connector-curvature="0" />
    <path
       d="M 210.07424,855.70866 A 225.11696,225.11696 0 0 0 23.280159,1015.1575"
       style="fill:none;stroke:#000000;stroke-linecap:round"
       id="path46"
       inkscape:connector-curvature="0" />
    <path
       d="m 210.07424,855.70866 534.02025,0"
       style="fill:none;stroke:#000000;stroke-linecap:round"
       id="path48"
       inkscape:connector-curvature="0" />
    <path
       d="m 744.09449,855.70866 0,26.5748"
       style="fill:none;stroke:#000000;stroke-linecap:round"
       id="path50"
       inkscape:connector-curvature="0" />
    <path
       d="m 744.09449,882.28346 -532.24107,0"
       style="fill:none;stroke:#000000;stroke-linecap:round"
       id="path52"
       inkscape:connector-curvature="0" />
    <path
       d="M 211.85342,882.28346 A 198.54216,198.54216 0 0 0 44.148111,1041.7323"
       style="fill:none;stroke:#000000;stroke-linecap:round"
       id="path54"
       inkscape:connector-curvature="0" />
    <path
       d="M 44.148111,1041.7323 0,1041.7323"
       style="fill:none;stroke:#000000;stroke-linecap:round"
       id="path56"
       inkscape:connector-curvature="0" />
    <path
       d="m 0,1041.7323 0,-26.5748"
       style="fill:none;stroke:#000000;stroke-linecap:round"
       id="path58"
       inkscape:connector-curvature="0" />
    <path
       d="M 21.259843,1041.7323 0,1020.4724"
       style="fill:none;stroke:#000000;stroke-linecap:round"
       id="path60"
       inkscape:connector-curvature="0" />
    <path
       d="M 45.714513,1034.2972 24.043999,1012.6267"
       style="fill:none;stroke:#000000;stroke-linecap:round"
       id="path62"
       inkscape:connector-curvature="0" />
    <path
       d="M 53.070938,1009.7639 42.519685,999.2126"
       style="fill:none;stroke:#000000;stroke-linecap:round"
       id="path64"
       inkscape:connector-curvature="0" />
    <path
       d="m 627.16535,882.28346 -26.5748,-26.5748"
       style="fill:none;stroke:#000000;stroke-linecap:round"
       id="path66"
       inkscape:connector-curvature="0" />
    <path
       d="m 659.05512,882.28346 -26.5748,-26.5748"
       style="fill:none;stroke:#000000;stroke-linecap:round"
       id="path68"
       inkscape:connector-curvature="0" />
    <path
       d="m 690.94488,882.28346 -26.5748,-26.5748"
       style="fill:none;stroke:#000000;stroke-linecap:round"
       id="path70"
       inkscape:connector-curvature="0" />
    <path
       d="m 722.83465,882.28346 -26.57481,-26.5748"
       style="fill:none;stroke:#000000;stroke-linecap:round"
       id="path72"
       inkscape:connector-curvature="0" />
    <path
       d="M 744.09449,871.65354 728.14961,855.70866"
       style="fill:none;stroke:#000000;stroke-linecap:round"
       id="path74"
       inkscape:connector-curvature="0" />
    <path
       d="M 595.27559,882.28346 584.64567,871.65354"
       style="fill:none;stroke:#000000;stroke-linecap:round"
       id="path76"
       inkscape:connector-curvature="0" />
    <path
       d="m 467.71654,882.28346 -26.57481,-26.5748"
       style="fill:none;stroke:#000000;stroke-linecap:round"
       id="path78"
       inkscape:connector-curvature="0" />
    <path
       d="m 499.6063,882.28346 -26.5748,-26.5748"
       style="fill:none;stroke:#000000;stroke-linecap:round"
       id="path80"
       inkscape:connector-curvature="0" />
    <path
       d="m 531.49606,882.28346 -26.5748,-26.5748"
       style="fill:none;stroke:#000000;stroke-linecap:round"
       id="path82"
       inkscape:connector-curvature="0" />
    <path
       d="m 563.38583,882.28346 -26.57481,-26.5748"
       style="fill:none;stroke:#000000;stroke-linecap:round"
       id="path84"
       inkscape:connector-curvature="0" />
    <path
       d="M 584.64567,871.65354 568.70079,855.70866"
       style="fill:none;stroke:#000000;stroke-linecap:round"
       id="path86"
       inkscape:connector-curvature="0" />
    <path
       d="M 435.82677,882.28346 425.19685,871.65354"
       style="fill:none;stroke:#000000;stroke-linecap:round"
       id="path88"
       inkscape:connector-curvature="0" />
    <path
       d="m 308.26772,882.28346 -26.57481,-26.5748"
       style="fill:none;stroke:#000000;stroke-linecap:round"
       id="path90"
       inkscape:connector-curvature="0" />
    <path
       d="m 340.15748,882.28346 -26.5748,-26.5748"
       style="fill:none;stroke:#000000;stroke-linecap:round"
       id="path92"
       inkscape:connector-curvature="0" />
    <path
       d="m 372.04724,882.28346 -26.5748,-26.5748"
       style="fill:none;stroke:#000000;stroke-linecap:round"
       id="path94"
       inkscape:connector-curvature="0" />
    <path
       d="m 403.93701,882.28346 -26.5748,-26.5748"
       style="fill:none;stroke:#000000;stroke-linecap:round"
       id="path96"
       inkscape:connector-curvature="0" />
    <path
       d="M 425.19685,871.65354 409.25197,855.70866"
       style="fill:none;stroke:#000000;stroke-linecap:round"
       id="path98"
       inkscape:connector-curvature="0" />
    <path
       d="M 276.37795,882.28346 265.74803,871.65354"
       style="fill:none;stroke:#000000;stroke-linecap:round"
       id="path100"
       inkscape:connector-curvature="0" />
    <path
       d="M 162.38203,895.84659 142.27637,875.74094"
       style="fill:none;stroke:#000000;stroke-linecap:round"
       id="path102"
       inkscape:connector-curvature="0" />
    <path
       d="M 186.05706,887.63186 164.86348,866.43828"
       style="fill:none;stroke:#000000;stroke-linecap:round"
       id="path104"
       inkscape:connector-curvature="0" />
    <path
       d="M 212.59842,882.28346 189.64987,859.33491"
       style="fill:none;stroke:#000000;stroke-linecap:round"
       id="path106"
       inkscape:connector-curvature="0" />
    <path
       d="m 244.48819,882.28346 -26.5748,-26.5748"
       style="fill:none;stroke:#000000;stroke-linecap:round"
       id="path108"
       inkscape:connector-curvature="0" />
    <path
       d="M 265.74803,871.65354 249.80315,855.70866"
       style="fill:none;stroke:#000000;stroke-linecap:round"
       id="path110"
       inkscape:connector-curvature="0" />
    <path
       d="M 141.00697,906.3613 121.60511,886.95945"
       style="fill:none;stroke:#000000;stroke-linecap:round"
       id="path112"
       inkscape:connector-curvature="0" />
    <path
       d="M 121.66163,918.90572 106.29921,903.54331"
       style="fill:none;stroke:#000000;stroke-linecap:round"
       id="path114"
       inkscape:connector-curvature="0" />
    <path
       d="M 74.746063,967.65945 55.650655,948.56404"
       style="fill:none;stroke:#000000;stroke-linecap:round"
       id="path116"
       inkscape:connector-curvature="0" />
    <path
       d="M 88.555812,949.57943 69.7169,930.74052"
       style="fill:none;stroke:#000000;stroke-linecap:round"
       id="path118"
       inkscape:connector-curvature="0" />
    <path
       d="M 104.19833,933.33219 85.395216,914.52908"
       style="fill:none;stroke:#000000;stroke-linecap:round"
       id="path120"
       inkscape:connector-curvature="0" />
    <path
       d="m 106.29921,903.54331 -3.62178,-3.62178"
       style="fill:none;stroke:#000000;stroke-linecap:round"
       id="path122"
       inkscape:connector-curvature="0" />
    <path
       d="M 62.856793,987.65994 43.255697,968.05885"
       style="fill:none;stroke:#000000;stroke-linecap:round"
       id="path124"
       inkscape:connector-curvature="0" />
    <path
       d="m 42.519685,999.2126 -9.86749,-9.86749"
       style="fill:none;stroke:#000000;stroke-linecap:round"
       id="path126"
       inkscape:connector-curvature="0" />
    <path
       d="m 1488.189,1052.3622 -53.1496,0 A 187.91223,187.91223 0 0 0 1275.5906,892.91339 l -531.49611,0"
       style="fill:none;stroke:#000000;stroke-linecap:round"
       id="path128"
       inkscape:connector-curvature="0" />
    <path
       d="m 1488.189,1015.1575 -23.2802,0 A 225.11696,225.11696 0 0 0 1278.1147,855.70866 l -534.02021,0"
       style="fill:none;stroke:#000000;stroke-linecap:round"
       id="path130"
       inkscape:connector-curvature="0" />
    <path
       d="m 1488.189,1041.7323 -44.1481,0 A 198.54216,198.54216 0 0 0 1276.3356,882.28346 l -532.24111,0"
       style="fill:none;stroke:#000000;stroke-linecap:round"
       id="path132"
       inkscape:connector-curvature="0" />
    <path
       d="m 1488.189,1015.1575 0,26.5748"
       style="fill:none;stroke:#000000;stroke-linecap:round"
       id="path134"
       inkscape:connector-curvature="0" />
    <path
       d="m 1488.189,1041.7323 0,10.6299"
       style="fill:none;stroke:#000000;stroke-linecap:round"
       id="path136"
       inkscape:connector-curvature="0" />
    <path
       d="m 744.09449,855.70866 0,26.5748"
       style="fill:none;stroke:#000000;stroke-linecap:round"
       id="path138"
       inkscape:connector-curvature="0" />
    <path
       d="m 744.09449,882.28346 0,10.62993"
       style="fill:none;stroke:#000000;stroke-linecap:round"
       id="path140"
       inkscape:connector-curvature="0" />
    <path
       d="m 1466.9291,1041.7323 21.2599,-21.2599"
       style="fill:none;stroke:#000000;stroke-linecap:round"
       id="path142"
       inkscape:connector-curvature="0" />
    <path
       d="m 1442.4745,1034.2972 21.6705,-21.6705"
       style="fill:none;stroke:#000000;stroke-linecap:round"
       id="path144"
       inkscape:connector-curvature="0" />
    <path
       d="m 1435.118,1009.7639 10.5513,-10.5513"
       style="fill:none;stroke:#000000;stroke-linecap:round"
       id="path146"
       inkscape:connector-curvature="0" />
    <path
       d="m 861.02362,882.28346 26.57481,-26.5748"
       style="fill:none;stroke:#000000;stroke-linecap:round"
       id="path148"
       inkscape:connector-curvature="0" />
    <path
       d="m 829.13386,882.28346 26.5748,-26.5748"
       style="fill:none;stroke:#000000;stroke-linecap:round"
       id="path150"
       inkscape:connector-curvature="0" />
    <path
       d="m 797.24409,882.28346 26.57481,-26.5748"
       style="fill:none;stroke:#000000;stroke-linecap:round"
       id="path152"
       inkscape:connector-curvature="0" />
    <path
       d="m 765.35433,882.28346 26.5748,-26.5748"
       style="fill:none;stroke:#000000;stroke-linecap:round"
       id="path154"
       inkscape:connector-curvature="0" />
    <path
       d="m 744.09449,871.65354 15.94488,-15.94488"
       style="fill:none;stroke:#000000;stroke-linecap:round"
       id="path156"
       inkscape:connector-curvature="0" />
    <path
       d="m 892.91339,882.28346 10.62992,-10.62992"
       style="fill:none;stroke:#000000;stroke-linecap:round"
       id="path158"
       inkscape:connector-curvature="0" />
    <path
       d="m 1020.4724,882.28346 26.5748,-26.5748"
       style="fill:none;stroke:#000000;stroke-linecap:round"
       id="path160"
       inkscape:connector-curvature="0" />
    <path
       d="m 988.58268,882.28346 26.57482,-26.5748"
       style="fill:none;stroke:#000000;stroke-linecap:round"
       id="path162"
       inkscape:connector-curvature="0" />
    <path
       d="m 956.69291,882.28346 26.57481,-26.5748"
       style="fill:none;stroke:#000000;stroke-linecap:round"
       id="path164"
       inkscape:connector-curvature="0" />
    <path
       d="m 924.80315,882.28346 26.5748,-26.5748"
       style="fill:none;stroke:#000000;stroke-linecap:round"
       id="path166"
       inkscape:connector-curvature="0" />
    <path
       d="m 903.54331,871.65354 15.94488,-15.94488"
       style="fill:none;stroke:#000000;stroke-linecap:round"
       id="path168"
       inkscape:connector-curvature="0" />
    <path
       d="m 1052.3622,882.28346 10.6299,-10.62992"
       style="fill:none;stroke:#000000;stroke-linecap:round"
       id="path170"
       inkscape:connector-curvature="0" />
    <path
       d="m 1179.9213,882.28346 26.5748,-26.5748"
       style="fill:none;stroke:#000000;stroke-linecap:round"
       id="path172"
       inkscape:connector-curvature="0" />
    <path
       d="m 1148.0315,882.28346 26.5748,-26.5748"
       style="fill:none;stroke:#000000;stroke-linecap:round"
       id="path174"
       inkscape:connector-curvature="0" />
    <path
       d="m 1116.1417,882.28346 26.5748,-26.5748"
       style="fill:none;stroke:#000000;stroke-linecap:round"
       id="path176"
       inkscape:connector-curvature="0" />
    <path
       d="m 1084.252,882.28346 26.5748,-26.5748"
       style="fill:none;stroke:#000000;stroke-linecap:round"
       id="path178"
       inkscape:connector-curvature="0" />
    <path
       d="m 1062.9921,871.65354 15.9449,-15.94488"
       style="fill:none;stroke:#000000;stroke-linecap:round"
       id="path180"
       inkscape:connector-curvature="0" />
    <path
       d="m 1211.811,882.28346 10.6299,-10.62992"
       style="fill:none;stroke:#000000;stroke-linecap:round"
       id="path182"
       inkscape:connector-curvature="0" />
    <path
       d="m 1325.8069,895.84659 20.1057,-20.10565"
       style="fill:none;stroke:#000000;stroke-linecap:round"
       id="path184"
       inkscape:connector-curvature="0" />
    <path
       d="m 1302.1319,887.63186 21.1936,-21.19358"
       style="fill:none;stroke:#000000;stroke-linecap:round"
       id="path186"
       inkscape:connector-curvature="0" />
    <path
       d="m 1275.5906,882.28346 22.9485,-22.94855"
       style="fill:none;stroke:#000000;stroke-linecap:round"
       id="path188"
       inkscape:connector-curvature="0" />
    <path
       d="m 1243.7008,882.28346 26.5748,-26.5748"
       style="fill:none;stroke:#000000;stroke-linecap:round"
       id="path190"
       inkscape:connector-curvature="0" />
    <path
       d="m 1222.4409,871.65354 15.9449,-15.94488"
       style="fill:none;stroke:#000000;stroke-linecap:round"
       id="path192"
       inkscape:connector-curvature="0" />
    <path
       d="m 1347.182,906.3613 19.4019,-19.40185"
       style="fill:none;stroke:#000000;stroke-linecap:round"
       id="path194"
       inkscape:connector-curvature="0" />
    <path
       d="m 1366.5273,918.90572 15.3625,-15.36241"
       style="fill:none;stroke:#000000;stroke-linecap:round"
       id="path196"
       inkscape:connector-curvature="0" />
    <path
       d="m 1413.4429,967.65945 19.0954,-19.09541"
       style="fill:none;stroke:#000000;stroke-linecap:round"
       id="path198"
       inkscape:connector-curvature="0" />
    <path
       d="m 1399.6332,949.57943 18.8389,-18.83891"
       style="fill:none;stroke:#000000;stroke-linecap:round"
       id="path200"
       inkscape:connector-curvature="0" />
    <path
       d="m 1383.9906,933.33219 18.8032,-18.80311"
       style="fill:none;stroke:#000000;stroke-linecap:round"
       id="path202"
       inkscape:connector-curvature="0" />
    <path
       d="m 1381.8898,903.54331 3.6217,-3.62178"
       style="fill:none;stroke:#000000;stroke-linecap:round"
       id="path204"
       inkscape:connector-curvature="0" />
    <path
       d="m 1425.3322,987.65994 19.6011,-19.60109"
       style="fill:none;stroke:#000000;stroke-linecap:round"
       id="path206"
       inkscape:connector-curvature="0" />
    <path
       d="m 1445.6693,999.2126 9.8675,-9.86749"
       style="fill:none;stroke:#000000;stroke-linecap:round"
       id="path208"
       inkscape:connector-curvature="0" />
    <path
       d="m 0,1105.5118 53.149606,0 a 187.91223,187.91223 0 0 0 159.448814,159.4488 l 531.49607,0"
       style="fill:none;stroke:#000000;stroke-linecap:round"
       id="path210"
       inkscape:connector-curvature="0" />
    <path
       d="m 0,1142.7165 23.280159,0 a 225.11696,225.11696 0 0 0 186.794081,159.4489 l 534.02025,0"
       style="fill:none;stroke:#000000;stroke-linecap:round"
       id="path212"
       inkscape:connector-curvature="0" />
    <path
       d="m 0,1116.1417 44.148111,0 a 198.54216,198.54216 0 0 0 167.705309,159.4489 l 532.24107,0"
       style="fill:none;stroke:#000000;stroke-linecap:round"
       id="path214"
       inkscape:connector-curvature="0" />
    <path
       d="m 0,1142.7165 0,-26.5748"
       style="fill:none;stroke:#000000;stroke-linecap:round"
       id="path216"
       inkscape:connector-curvature="0" />
    <path
       d="m 0,1116.1417 0,-10.6299"
       style="fill:none;stroke:#000000;stroke-linecap:round"
       id="path218"
       inkscape:connector-curvature="0" />
    <path
       d="m 744.09449,1302.1654 0,-26.5748"
       style="fill:none;stroke:#000000;stroke-linecap:round"
       id="path220"
       inkscape:connector-curvature="0" />
    <path
       d="m 744.09449,1275.5906 0,-10.63"
       style="fill:none;stroke:#000000;stroke-linecap:round"
       id="path222"
       inkscape:connector-curvature="0" />
    <path
       d="M 21.259843,1116.1417 0,1137.4016"
       style="fill:none;stroke:#000000;stroke-linecap:round"
       id="path224"
       inkscape:connector-curvature="0" />
    <path
       d="m 45.714513,1123.5768 -21.670514,21.6705"
       style="fill:none;stroke:#000000;stroke-linecap:round"
       id="path226"
       inkscape:connector-curvature="0" />
    <path
       d="m 53.070938,1148.1102 -10.551253,10.5512"
       style="fill:none;stroke:#000000;stroke-linecap:round"
       id="path228"
       inkscape:connector-curvature="0" />
    <path
       d="m 627.16535,1275.5906 -26.5748,26.5748"
       style="fill:none;stroke:#000000;stroke-linecap:round"
       id="path230"
       inkscape:connector-curvature="0" />
    <path
       d="m 659.05512,1275.5906 -26.5748,26.5748"
       style="fill:none;stroke:#000000;stroke-linecap:round"
       id="path232"
       inkscape:connector-curvature="0" />
    <path
       d="m 690.94488,1275.5906 -26.5748,26.5748"
       style="fill:none;stroke:#000000;stroke-linecap:round"
       id="path234"
       inkscape:connector-curvature="0" />
    <path
       d="m 722.83465,1275.5906 -26.57481,26.5748"
       style="fill:none;stroke:#000000;stroke-linecap:round"
       id="path236"
       inkscape:connector-curvature="0" />
    <path
       d="m 744.09449,1286.2205 -15.94488,15.9449"
       style="fill:none;stroke:#000000;stroke-linecap:round"
       id="path238"
       inkscape:connector-curvature="0" />
    <path
       d="m 595.27559,1275.5906 -10.62992,10.6299"
       style="fill:none;stroke:#000000;stroke-linecap:round"
       id="path240"
       inkscape:connector-curvature="0" />
    <path
       d="m 467.71654,1275.5906 -26.57481,26.5748"
       style="fill:none;stroke:#000000;stroke-linecap:round"
       id="path242"
       inkscape:connector-curvature="0" />
    <path
       d="m 499.6063,1275.5906 -26.5748,26.5748"
       style="fill:none;stroke:#000000;stroke-linecap:round"
       id="path244"
       inkscape:connector-curvature="0" />
    <path
       d="m 531.49606,1275.5906 -26.5748,26.5748"
       style="fill:none;stroke:#000000;stroke-linecap:round"
       id="path246"
       inkscape:connector-curvature="0" />
    <path
       d="m 563.38583,1275.5906 -26.57481,26.5748"
       style="fill:none;stroke:#000000;stroke-linecap:round"
       id="path248"
       inkscape:connector-curvature="0" />
    <path
       d="m 584.64567,1286.2205 -15.94488,15.9449"
       style="fill:none;stroke:#000000;stroke-linecap:round"
       id="path250"
       inkscape:connector-curvature="0" />
    <path
       d="m 435.82677,1275.5906 -10.62992,10.6299"
       style="fill:none;stroke:#000000;stroke-linecap:round"
       id="path252"
       inkscape:connector-curvature="0" />
    <path
       d="m 308.26772,1275.5906 -26.57481,26.5748"
       style="fill:none;stroke:#000000;stroke-linecap:round"
       id="path254"
       inkscape:connector-curvature="0" />
    <path
       d="m 340.15748,1275.5906 -26.5748,26.5748"
       style="fill:none;stroke:#000000;stroke-linecap:round"
       id="path256"
       inkscape:connector-curvature="0" />
    <path
       d="m 372.04724,1275.5906 -26.5748,26.5748"
       style="fill:none;stroke:#000000;stroke-linecap:round"
       id="path258"
       inkscape:connector-curvature="0" />
    <path
       d="m 403.93701,1275.5906 -26.5748,26.5748"
       style="fill:none;stroke:#000000;stroke-linecap:round"
       id="path260"
       inkscape:connector-curvature="0" />
    <path
       d="m 425.19685,1286.2205 -15.94488,15.9449"
       style="fill:none;stroke:#000000;stroke-linecap:round"
       id="path262"
       inkscape:connector-curvature="0" />
    <path
       d="m 276.37795,1275.5906 -10.62992,10.6299"
       style="fill:none;stroke:#000000;stroke-linecap:round"
       id="path264"
       inkscape:connector-curvature="0" />
    <path
       d="m 162.38203,1262.0274 -20.10566,20.1057"
       style="fill:none;stroke:#000000;stroke-linecap:round"
       id="path266"
       inkscape:connector-curvature="0" />
    <path
       d="m 186.05706,1270.2422 -21.19358,21.1935"
       style="fill:none;stroke:#000000;stroke-linecap:round"
       id="path268"
       inkscape:connector-curvature="0" />
    <path
       d="m 212.59842,1275.5906 -22.94855,22.9485"
       style="fill:none;stroke:#000000;stroke-linecap:round"
       id="path270"
       inkscape:connector-curvature="0" />
    <path
       d="m 244.48819,1275.5906 -26.5748,26.5748"
       style="fill:none;stroke:#000000;stroke-linecap:round"
       id="path272"
       inkscape:connector-curvature="0" />
    <path
       d="m 265.74803,1286.2205 -15.94488,15.9449"
       style="fill:none;stroke:#000000;stroke-linecap:round"
       id="path274"
       inkscape:connector-curvature="0" />
    <path
       d="m 141.00697,1251.5127 -19.40186,19.4019"
       style="fill:none;stroke:#000000;stroke-linecap:round"
       id="path276"
       inkscape:connector-curvature="0" />
    <path
       d="m 121.66163,1238.9683 -15.36242,15.3624"
       style="fill:none;stroke:#000000;stroke-linecap:round"
       id="path278"
       inkscape:connector-curvature="0" />
    <path
       d="M 74.746063,1190.2146 55.650655,1209.31"
       style="fill:none;stroke:#000000;stroke-linecap:round"
       id="path280"
       inkscape:connector-curvature="0" />
    <path
       d="M 88.555812,1208.2946 69.7169,1227.1335"
       style="fill:none;stroke:#000000;stroke-linecap:round"
       id="path282"
       inkscape:connector-curvature="0" />
    <path
       d="m 104.19833,1224.5418 -18.803114,18.8031"
       style="fill:none;stroke:#000000;stroke-linecap:round"
       id="path284"
       inkscape:connector-curvature="0" />
    <path
       d="m 106.29921,1254.3307 -3.62178,3.6218"
       style="fill:none;stroke:#000000;stroke-linecap:round"
       id="path286"
       inkscape:connector-curvature="0" />
    <path
       d="m 62.856793,1170.2141 -19.601096,19.6011"
       style="fill:none;stroke:#000000;stroke-linecap:round"
       id="path288"
       inkscape:connector-curvature="0" />
    <path
       d="m 42.519685,1158.6614 -9.86749,9.8675"
       style="fill:none;stroke:#000000;stroke-linecap:round"
       id="path290"
       inkscape:connector-curvature="0" />
    <path
       d="m 1488.189,1105.5118 -53.1496,0 a 187.91223,187.91223 0 0 1 -159.4488,159.4488 l -531.49611,0"
       style="fill:none;stroke:#000000;stroke-linecap:round"
       id="path292"
       inkscape:connector-curvature="0" />
    <path
       d="m 1488.189,1142.7165 -23.2802,0 a 225.11696,225.11696 0 0 1 -186.7941,159.4489 l -534.02021,0"
       style="fill:none;stroke:#000000;stroke-linecap:round"
       id="path294"
       inkscape:connector-curvature="0" />
    <path
       d="m 1488.189,1116.1417 -44.1481,0 a 198.54216,198.54216 0 0 1 -167.7053,159.4489 l -532.24111,0"
       style="fill:none;stroke:#000000;stroke-linecap:round"
       id="path296"
       inkscape:connector-curvature="0" />
    <path
       d="m 1488.189,1142.7165 0,-26.5748"
       style="fill:none;stroke:#000000;stroke-linecap:round"
       id="path298"
       inkscape:connector-curvature="0" />
    <path
       d="m 1488.189,1116.1417 0,-10.6299"
       style="fill:none;stroke:#000000;stroke-linecap:round"
       id="path300"
       inkscape:connector-curvature="0" />
    <path
       d="m 744.09449,1302.1654 0,-26.5748"
       style="fill:none;stroke:#000000;stroke-linecap:round"
       id="path302"
       inkscape:connector-curvature="0" />
    <path
       d="m 744.09449,1275.5906 0,-10.63"
       style="fill:none;stroke:#000000;stroke-linecap:round"
       id="path304"
       inkscape:connector-curvature="0" />
    <path
       d="m 1466.9291,1116.1417 21.2599,21.2599"
       style="fill:none;stroke:#000000;stroke-linecap:round"
       id="path306"
       inkscape:connector-curvature="0" />
    <path
       d="m 1442.4745,1123.5768 21.6705,21.6705"
       style="fill:none;stroke:#000000;stroke-linecap:round"
       id="path308"
       inkscape:connector-curvature="0" />
    <path
       d="m 1435.118,1148.1102 10.5513,10.5512"
       style="fill:none;stroke:#000000;stroke-linecap:round"
       id="path310"
       inkscape:connector-curvature="0" />
    <path
       d="m 861.02362,1275.5906 26.57481,26.5748"
       style="fill:none;stroke:#000000;stroke-linecap:round"
       id="path312"
       inkscape:connector-curvature="0" />
    <path
       d="m 829.13386,1275.5906 26.5748,26.5748"
       style="fill:none;stroke:#000000;stroke-linecap:round"
       id="path314"
       inkscape:connector-curvature="0" />
    <path
       d="m 797.24409,1275.5906 26.57481,26.5748"
       style="fill:none;stroke:#000000;stroke-linecap:round"
       id="path316"
       inkscape:connector-curvature="0" />
    <path
       d="m 765.35433,1275.5906 26.5748,26.5748"
       style="fill:none;stroke:#000000;stroke-linecap:round"
       id="path318"
       inkscape:connector-curvature="0" />
    <path
       d="m 744.09449,1286.2205 15.94488,15.9449"
       style="fill:none;stroke:#000000;stroke-linecap:round"
       id="path320"
       inkscape:connector-curvature="0" />
    <path
       d="m 892.91339,1275.5906 10.62992,10.6299"
       style="fill:none;stroke:#000000;stroke-linecap:round"
       id="path322"
       inkscape:connector-curvature="0" />
    <path
       d="m 1020.4724,1275.5906 26.5748,26.5748"
       style="fill:none;stroke:#000000;stroke-linecap:round"
       id="path324"
       inkscape:connector-curvature="0" />
    <path
       d="m 988.58268,1275.5906 26.57482,26.5748"
       style="fill:none;stroke:#000000;stroke-linecap:round"
       id="path326"
       inkscape:connector-curvature="0" />
    <path
       d="m 956.69291,1275.5906 26.57481,26.5748"
       style="fill:none;stroke:#000000;stroke-linecap:round"
       id="path328"
       inkscape:connector-curvature="0" />
    <path
       d="m 924.80315,1275.5906 26.5748,26.5748"
       style="fill:none;stroke:#000000;stroke-linecap:round"
       id="path330"
       inkscape:connector-curvature="0" />
    <path
       d="m 903.54331,1286.2205 15.94488,15.9449"
       style="fill:none;stroke:#000000;stroke-linecap:round"
       id="path332"
       inkscape:connector-curvature="0" />
    <path
       d="m 1052.3622,1275.5906 10.6299,10.6299"
       style="fill:none;stroke:#000000;stroke-linecap:round"
       id="path334"
       inkscape:connector-curvature="0" />
    <path
       d="m 1179.9213,1275.5906 26.5748,26.5748"
       style="fill:none;stroke:#000000;stroke-linecap:round"
       id="path336"
       inkscape:connector-curvature="0" />
    <path
       d="m 1148.0315,1275.5906 26.5748,26.5748"
       style="fill:none;stroke:#000000;stroke-linecap:round"
       id="path338"
       inkscape:connector-curvature="0" />
    <path
       d="m 1116.1417,1275.5906 26.5748,26.5748"
       style="fill:none;stroke:#000000;stroke-linecap:round"
       id="path340"
       inkscape:connector-curvature="0" />
    <path
       d="m 1084.252,1275.5906 26.5748,26.5748"
       style="fill:none;stroke:#000000;stroke-linecap:round"
       id="path342"
       inkscape:connector-curvature="0" />
    <path
       d="m 1062.9921,1286.2205 15.9449,15.9449"
       style="fill:none;stroke:#000000;stroke-linecap:round"
       id="path344"
       inkscape:connector-curvature="0" />
    <path
       d="m 1211.811,1275.5906 10.6299,10.6299"
       style="fill:none;stroke:#000000;stroke-linecap:round"
       id="path346"
       inkscape:connector-curvature="0" />
    <path
       d="m 1325.8069,1262.0274 20.1057,20.1057"
       style="fill:none;stroke:#000000;stroke-linecap:round"
       id="path348"
       inkscape:connector-curvature="0" />
    <path
       d="m 1302.1319,1270.2422 21.1936,21.1935"
       style="fill:none;stroke:#000000;stroke-linecap:round"
       id="path350"
       inkscape:connector-curvature="0" />
    <path
       d="m 1275.5906,1275.5906 22.9485,22.9485"
       style="fill:none;stroke:#000000;stroke-linecap:round"
       id="path352"
       inkscape:connector-curvature="0" />
    <path
       d="m 1243.7008,1275.5906 26.5748,26.5748"
       style="fill:none;stroke:#000000;stroke-linecap:round"
       id="path354"
       inkscape:connector-curvature="0" />
    <path
       d="m 1222.4409,1286.2205 15.9449,15.9449"
       style="fill:none;stroke:#000000;stroke-linecap:round"
       id="path356"
       inkscape:connector-curvature="0" />
    <path
       d="m 1347.182,1251.5127 19.4019,19.4019"
       style="fill:none;stroke:#000000;stroke-linecap:round"
       id="path358"
       inkscape:connector-curvature="0" />
    <path
       d="m 1366.5273,1238.9683 15.3625,15.3624"
       style="fill:none;stroke:#000000;stroke-linecap:round"
       id="path360"
       inkscape:connector-curvature="0" />
    <path
       d="m 1413.4429,1190.2146 19.0954,19.0954"
       style="fill:none;stroke:#000000;stroke-linecap:round"
       id="path362"
       inkscape:connector-curvature="0" />
    <path
       d="m 1399.6332,1208.2946 18.8389,18.8389"
       style="fill:none;stroke:#000000;stroke-linecap:round"
       id="path364"
       inkscape:connector-curvature="0" />
    <path
       d="m 1383.9906,1224.5418 18.8032,18.8031"
       style="fill:none;stroke:#000000;stroke-linecap:round"
       id="path366"
       inkscape:connector-curvature="0" />
    <path
       d="m 1381.8898,1254.3307 3.6217,3.6218"
       style="fill:none;stroke:#000000;stroke-linecap:round"
       id="path368"
       inkscape:connector-curvature="0" />
    <path
       d="m 1425.3322,1170.2141 19.6011,19.6011"
       style="fill:none;stroke:#000000;stroke-linecap:round"
       id="path370"
       inkscape:connector-curvature="0" />
    <path
       d="m 1445.6693,1158.6614 9.8675,9.8675"
       style="fill:none;stroke:#000000;stroke-linecap:round"
       id="path372"
       inkscape:connector-curvature="0" />
    <path
       d="m 1488.5192,1052.3622 -53.1496,0 c -5.7003,-39.9021 -24.648,-77.79771 -53.1496,-106.29921 -28.5015,-28.5015 -66.3971,-47.4493 -106.2992,-53.1496 l -531.49606,0 0,-10.6299 532.24106,0 c 26.5689,3.691 52.3678,12.8373 75.3286,26.7056 22.9609,13.8683 43.0631,32.4463 58.6952,54.2446 15.632,21.7983 28.0342,51.67481 33.8045,77.87081 l 44.0251,0.6278 z"
       style="fill:#000000"
       id="path28-3"
       inkscape:connector-curvature="0"
       sodipodi:nodetypes="ccsccccssccc" />
    <path
       d="m -0.42276571,1105.5797 53.14960571,0 c 5.700305,39.9021 24.648081,77.7977 53.1496,106.2992 28.50153,28.5015 66.39708,47.4493 106.29921,53.1496 l 531.49607,0 0,10.6299 -532.24107,0 c -26.56888,-3.691 -52.36781,-12.8373 -75.32862,-26.7056 -22.96082,-13.8683 -43.063015,-32.4463 -58.695109,-54.2446 -15.632095,-21.7984 -28.034269,-51.6748 -33.804563,-77.8708 l -44.02512371,-0.6278 z"
       style="fill:#000000"
       id="path28-9"
       inkscape:connector-curvature="0"
       sodipodi:nodetypes="ccsccccssccc" />
    <path
       d="m 1488.0964,1105.5797 -53.1496,0 c -5.7003,39.9021 -24.648,77.7977 -53.1496,106.2992 -28.5015,28.5015 -66.3971,47.4493 -106.2992,53.1496 l -531.49603,0 0,10.6299 532.24103,0 c 26.5689,-3.691 52.3678,-12.8373 75.3286,-26.7056 22.9609,-13.8683 43.0631,-32.4463 58.6952,-54.2446 15.632,-21.7983 28.0342,-51.6748 33.8045,-77.8708 l 44.0251,-0.6278 z"
       style="fill:#000000"
       id="path28-3-6"
       inkscape:connector-curvature="0"
       sodipodi:nodetypes="ccsccccssccc" />
  </g>
</svg>
